<?xml version="1.0" encoding="ISO8859-1"?>
<svg xmlns="http://www.w3.org/2000/svg" xmlns:xlink="http://www.w3.org/1999/xlink" width="288px" height="252px" viewBox="0 0 288 252" version="1.1" id="Fig:dens">
  <metadata xmlns:gridsvg="http://www.stat.auckland.ac.nz/~paul/R/gridSVG/">
    <gridsvg:generator name="gridSVG" version="1.7-2" time="2020-05-01 18:12:44"/>
    <gridsvg:argument name="name" value="arrayQualityMetrics report for rawData/dens.svg"/>
    <gridsvg:argument name="exportCoords" value="none"/>
    <gridsvg:argument name="exportMappings" value="none"/>
    <gridsvg:argument name="exportJS" value="none"/>
    <gridsvg:argument name="res" value="72"/>
    <gridsvg:argument name="prefix" value="Fig:dens"/>
    <gridsvg:argument name="addClasses" value="FALSE"/>
    <gridsvg:argument name="indent" value="TRUE"/>
    <gridsvg:argument name="htmlWrapper" value="FALSE"/>
    <gridsvg:argument name="usePaths" value="none"/>
    <gridsvg:argument name="uniqueNames" value="TRUE"/>
    <gridsvg:separator name="id.sep" value="."/>
    <gridsvg:separator name="gPath.sep" value="::"/>
    <gridsvg:separator name="vpPath.sep" value="::"/>
  </metadata>
  <g transform="translate(0, 252) scale(1, -1)">
    <g id="Fig:densgridSVG" fill="none" stroke="rgb(0,0,0)" stroke-dasharray="none" stroke-width="0.75" font-size="12" font-family="Helvetica, Arial, FreeSans, Liberation Sans, Nimbus Sans L, sans-serif" opacity="1" stroke-linecap="round" stroke-linejoin="round" stroke-miterlimit="10" stroke-opacity="1" fill-opacity="0" font-weight="normal" font-style="normal">
      <g id="Fig:densplot_01.background.1">
        <rect id="Fig:densplot_01.background.1.1" x="0" y="0" width="288" height="252" transform="" fill="none" stroke="none" stroke-opacity="0" fill-opacity="0"/>
      </g>
      <g id="Fig:densplot_01.toplevel.vp.1" font-size="12">
        <g id="Fig:densplot_01.ylab.vp.1">
          <g id="Fig:densplot_01.ylab.1">
            <g id="Fig:densplot_01.ylab.1.1" transform="translate(10.31, 138.09)" stroke-width="0.1">
              <g id="Fig:densplot_01.ylab.1.1.scale" transform="scale(1, -1)">
                <text x="0" y="0" id="Fig:densplot_01.ylab.1.1.text" transform="rotate(-90)" text-anchor="middle" opacity="1" stroke="rgb(0,0,0)" fill="rgb(0,0,0)" stroke-opacity="1" fill-opacity="1" font-size="12" font-weight="normal" font-style="normal">
                  <tspan id="Fig:densplot_01.ylab.1.1.tspan.1" dy="4.31" x="0">Density</tspan>
                </text>
              </g>
            </g>
          </g>
        </g>
        <g id="Fig:densplot_01.figure.vp.1"/>
        <defs>
          <clipPath id="Fig:densplot_01.panel.1.1.vp.1.clipPath">
            <rect x="44.8" y="42.19" width="231.2" height="191.81" fill="none" stroke="none"/>
          </clipPath>
        </defs>
        <g id="Fig:densplot_01.panel.1.1.vp.1" clip-path="url(#Fig:densplot_01.panel.1.1.vp.1.clipPath)"/>
        <g id="Fig:densplot_01.strip.1.1.off.vp.1"/>
        <g id="Fig:densplot_01.strip.left.1.1.off.vp.1">
          <g id="Fig:densplot_01.ticks.left.panel.1.1.1">
            <polyline id="Fig:densplot_01.ticks.left.panel.1.1.1.1" points="44.8,53.97 39.13,53.97" stroke="rgb(0,0,0)" opacity="1" stroke-dasharray="none" stroke-width="0.75" stroke-opacity="1" fill="none"/>
            <polyline id="Fig:densplot_01.ticks.left.panel.1.1.1.2" points="44.8,115.7 39.13,115.7" stroke="rgb(0,0,0)" opacity="1" stroke-dasharray="none" stroke-width="0.75" stroke-opacity="1" fill="none"/>
            <polyline id="Fig:densplot_01.ticks.left.panel.1.1.1.3" points="44.8,177.43 39.13,177.43" stroke="rgb(0,0,0)" opacity="1" stroke-dasharray="none" stroke-width="0.75" stroke-opacity="1" fill="none"/>
          </g>
          <g id="Fig:densplot_01.ticklabels.left.panel.1.1.1">
            <g id="Fig:densplot_01.ticklabels.left.panel.1.1.1.1" transform="translate(33.47, 53.97)" stroke-width="0.1">
              <g id="Fig:densplot_01.ticklabels.left.panel.1.1.1.1.scale" transform="scale(1, -1)">
                <text x="0" y="0" id="Fig:densplot_01.ticklabels.left.panel.1.1.1.1.text" transform="rotate(-90)" text-anchor="middle" stroke="rgb(0,0,0)" opacity="1" fill="rgb(0,0,0)" stroke-opacity="1" fill-opacity="1" font-size="9.6" font-weight="normal" font-style="normal">
                  <tspan id="Fig:densplot_01.ticklabels.left.panel.1.1.1.1.tspan.1" dy="0" x="0">0.000</tspan>
                </text>
              </g>
            </g>
            <g id="Fig:densplot_01.ticklabels.left.panel.1.1.1.2" transform="translate(33.47, 115.7)" stroke-width="0.1">
              <g id="Fig:densplot_01.ticklabels.left.panel.1.1.1.2.scale" transform="scale(1, -1)">
                <text x="0" y="0" id="Fig:densplot_01.ticklabels.left.panel.1.1.1.2.text" transform="rotate(-90)" text-anchor="middle" stroke="rgb(0,0,0)" opacity="1" fill="rgb(0,0,0)" stroke-opacity="1" fill-opacity="1" font-size="9.6" font-weight="normal" font-style="normal">
                  <tspan id="Fig:densplot_01.ticklabels.left.panel.1.1.1.2.tspan.1" dy="0" x="0">0.005</tspan>
                </text>
              </g>
            </g>
            <g id="Fig:densplot_01.ticklabels.left.panel.1.1.1.3" transform="translate(33.47, 177.43)" stroke-width="0.1">
              <g id="Fig:densplot_01.ticklabels.left.panel.1.1.1.3.scale" transform="scale(1, -1)">
                <text x="0" y="0" id="Fig:densplot_01.ticklabels.left.panel.1.1.1.3.text" transform="rotate(-90)" text-anchor="middle" stroke="rgb(0,0,0)" opacity="1" fill="rgb(0,0,0)" stroke-opacity="1" fill-opacity="1" font-size="9.6" font-weight="normal" font-style="normal">
                  <tspan id="Fig:densplot_01.ticklabels.left.panel.1.1.1.3.tspan.1" dy="0" x="0">0.010</tspan>
                </text>
              </g>
            </g>
          </g>
        </g>
        <g id="Fig:densplot_01.panel.1.1.off.vp.1">
          <g id="Fig:densplot_01.ticks.bottom.panel.1.1.1">
            <polyline id="Fig:densplot_01.ticks.bottom.panel.1.1.1.1" points="56.45,42.19 56.45,36.52" stroke="rgb(0,0,0)" opacity="1" stroke-dasharray="none" stroke-width="0.75" stroke-opacity="1" fill="none"/>
            <polyline id="Fig:densplot_01.ticks.bottom.panel.1.1.1.2" points="100.7,42.19 100.7,36.52" stroke="rgb(0,0,0)" opacity="1" stroke-dasharray="none" stroke-width="0.75" stroke-opacity="1" fill="none"/>
            <polyline id="Fig:densplot_01.ticks.bottom.panel.1.1.1.3" points="144.96,42.19 144.96,36.52" stroke="rgb(0,0,0)" opacity="1" stroke-dasharray="none" stroke-width="0.75" stroke-opacity="1" fill="none"/>
            <polyline id="Fig:densplot_01.ticks.bottom.panel.1.1.1.4" points="189.21,42.19 189.21,36.52" stroke="rgb(0,0,0)" opacity="1" stroke-dasharray="none" stroke-width="0.75" stroke-opacity="1" fill="none"/>
            <polyline id="Fig:densplot_01.ticks.bottom.panel.1.1.1.5" points="233.47,42.19 233.47,36.52" stroke="rgb(0,0,0)" opacity="1" stroke-dasharray="none" stroke-width="0.75" stroke-opacity="1" fill="none"/>
          </g>
          <g id="Fig:densplot_01.ticklabels.bottom.panel.1.1.1">
            <g id="Fig:densplot_01.ticklabels.bottom.panel.1.1.1.1" transform="translate(56.45, 30.85)" stroke-width="0.1">
              <g id="Fig:densplot_01.ticklabels.bottom.panel.1.1.1.1.scale" transform="scale(1, -1)">
                <text x="0" y="0" id="Fig:densplot_01.ticklabels.bottom.panel.1.1.1.1.text" text-anchor="middle" stroke="rgb(0,0,0)" opacity="1" fill="rgb(0,0,0)" stroke-opacity="1" fill-opacity="1" font-size="9.6" font-weight="normal" font-style="normal">
                  <tspan id="Fig:densplot_01.ticklabels.bottom.panel.1.1.1.1.tspan.1" dy="7.18" x="0">0</tspan>
                </text>
              </g>
            </g>
            <g id="Fig:densplot_01.ticklabels.bottom.panel.1.1.1.2" transform="translate(100.7, 30.85)" stroke-width="0.1">
              <g id="Fig:densplot_01.ticklabels.bottom.panel.1.1.1.2.scale" transform="scale(1, -1)">
                <text x="0" y="0" id="Fig:densplot_01.ticklabels.bottom.panel.1.1.1.2.text" text-anchor="middle" stroke="rgb(0,0,0)" opacity="1" fill="rgb(0,0,0)" stroke-opacity="1" fill-opacity="1" font-size="9.6" font-weight="normal" font-style="normal">
                  <tspan id="Fig:densplot_01.ticklabels.bottom.panel.1.1.1.2.tspan.1" dy="7.18" x="0">500</tspan>
                </text>
              </g>
            </g>
            <g id="Fig:densplot_01.ticklabels.bottom.panel.1.1.1.3" transform="translate(144.96, 30.85)" stroke-width="0.1">
              <g id="Fig:densplot_01.ticklabels.bottom.panel.1.1.1.3.scale" transform="scale(1, -1)">
                <text x="0" y="0" id="Fig:densplot_01.ticklabels.bottom.panel.1.1.1.3.text" text-anchor="middle" stroke="rgb(0,0,0)" opacity="1" fill="rgb(0,0,0)" stroke-opacity="1" fill-opacity="1" font-size="9.6" font-weight="normal" font-style="normal">
                  <tspan id="Fig:densplot_01.ticklabels.bottom.panel.1.1.1.3.tspan.1" dy="7.18" x="0">1000</tspan>
                </text>
              </g>
            </g>
            <g id="Fig:densplot_01.ticklabels.bottom.panel.1.1.1.4" transform="translate(189.21, 30.85)" stroke-width="0.1">
              <g id="Fig:densplot_01.ticklabels.bottom.panel.1.1.1.4.scale" transform="scale(1, -1)">
                <text x="0" y="0" id="Fig:densplot_01.ticklabels.bottom.panel.1.1.1.4.text" text-anchor="middle" stroke="rgb(0,0,0)" opacity="1" fill="rgb(0,0,0)" stroke-opacity="1" fill-opacity="1" font-size="9.6" font-weight="normal" font-style="normal">
                  <tspan id="Fig:densplot_01.ticklabels.bottom.panel.1.1.1.4.tspan.1" dy="7.18" x="0">1500</tspan>
                </text>
              </g>
            </g>
            <g id="Fig:densplot_01.ticklabels.bottom.panel.1.1.1.5" transform="translate(233.47, 30.85)" stroke-width="0.1">
              <g id="Fig:densplot_01.ticklabels.bottom.panel.1.1.1.5.scale" transform="scale(1, -1)">
                <text x="0" y="0" id="Fig:densplot_01.ticklabels.bottom.panel.1.1.1.5.text" text-anchor="middle" stroke="rgb(0,0,0)" opacity="1" fill="rgb(0,0,0)" stroke-opacity="1" fill-opacity="1" font-size="9.6" font-weight="normal" font-style="normal">
                  <tspan id="Fig:densplot_01.ticklabels.bottom.panel.1.1.1.5.tspan.1" dy="7.18" x="0">2000</tspan>
                </text>
              </g>
            </g>
          </g>
        </g>
        <defs>
          <clipPath id="Fig:densplot_01.panel.1.1.vp.2.clipPath">
            <rect x="44.8" y="42.19" width="231.2" height="191.81" fill="none" stroke="none"/>
          </clipPath>
        </defs>
        <g id="Fig:densplot_01.panel.1.1.vp.2" clip-path="url(#Fig:densplot_01.panel.1.1.vp.2.clipPath)">
          <g id="Fig:densplot_01.xyplot.lines.group.1.panel.1.1.1">
            <polyline id="Fig:densplot_01.xyplot.lines.group.1.panel.1.1.1.1" points="59.2,53.97 59.6,53.97 59.99,54.02 60.39,54.28 60.79,55.44 61.18,59.35 61.58,69.21 61.98,87.97 62.37,115.07 62.77,144.68 63.16,168.67 63.56,181.69 63.96,183.53 64.35,177.49 64.75,167.51 65.15,156.45 65.54,145.84 65.94,136.28 66.33,127.88 66.73,120.55 67.13,114.16 67.52,108.56 67.92,103.67 68.32,99.41 68.71,95.72 69.11,92.51 69.5,89.7 69.9,87.21 70.3,84.97 70.69,82.94 71.09,81.1 71.49,79.39 71.88,77.81 72.28,76.36 72.67,75.07 73.07,73.93 73.47,72.93 73.86,72 74.26,71.13 74.66,70.31 75.05,69.57 75.45,68.89 75.84,68.26 76.24,67.67 76.64,67.1 77.03,66.54 77.43,66.02 77.83,65.54 78.22,65.1 78.62,64.68 79.01,64.31 79.41,63.98 79.81,63.7 80.2,63.46 80.6,63.29 81,63.18 81.39,63.15 81.79,63.21 82.18,63.36 82.58,63.59 82.98,63.89 83.37,64.24 83.77,64.66 84.17,65.16 84.56,65.7 84.96,66.26 85.35,66.8 85.75,67.3 86.15,67.74 86.54,68.1 86.94,68.38 87.34,68.55 87.73,68.6 88.13,68.54 88.52,68.38 88.92,68.1 89.32,67.73 89.71,67.26 90.11,66.72 90.51,66.11 90.9,65.46 91.3,64.78 91.7,64.07 92.09,63.37 92.49,62.68 92.88,62.02 93.28,61.39 93.68,60.8 94.07,60.27 94.47,59.79 94.87,59.36 95.26,58.97 95.66,58.63 96.05,58.32 96.45,58.04 96.85,57.81 97.24,57.61 97.64,57.45 98.04,57.31 98.43,57.18 98.83,57.07 99.22,56.99 99.62,56.91 100.02,56.85 100.41,56.8 100.81,56.74 101.21,56.69 101.6,56.63 102,56.57 102.39,56.51 102.79,56.47 103.19,56.43 103.58,56.4 103.98,56.36 104.38,56.33 104.77,56.29 105.17,56.25 105.56,56.22 105.96,56.18 106.36,56.14 106.75,56.1 107.15,56.07 107.55,56.03 107.94,56.01 108.34,55.98 108.73,55.96 109.13,55.94 109.53,55.91 109.92,55.89 110.32,55.87 110.72,55.83 111.11,55.8 111.51,55.77 111.9,55.74 112.3,55.73 112.7,55.71 113.09,55.69 113.49,55.67 113.89,55.65 114.28,55.63 114.68,55.62 115.07,55.6 115.47,55.57 115.87,55.54 116.26,55.51 116.66,55.49 117.06,55.47 117.45,55.45 117.85,55.44 118.24,55.43 118.64,55.42 119.04,55.41 119.43,55.4 119.83,55.39 120.23,55.38 120.62,55.36 121.02,55.34 121.41,55.33 121.81,55.31 122.21,55.29 122.6,55.27 123,55.25 123.4,55.25 123.79,55.24 124.19,55.23 124.58,55.22 124.98,55.2 125.38,55.19 125.77,55.18 126.17,55.17 126.57,55.15 126.96,55.14 127.36,55.12 127.75,55.1 128.15,55.09 128.55,55.09 128.94,55.08 129.34,55.07 129.74,55.05 130.13,55.04 130.53,55.03 130.92,55.02 131.32,55.02 131.72,55.01 132.11,55 132.51,54.98 132.91,54.97 133.3,54.97 133.7,54.96 134.09,54.95 134.49,54.94 134.89,54.94 135.28,54.94 135.68,54.94 136.08,54.93 136.47,54.93 136.87,54.92 137.26,54.91 137.66,54.9 138.06,54.87 138.45,54.85 138.85,54.84 139.25,54.84 139.64,54.84 140.04,54.84 140.44,54.83 140.83,54.83 141.23,54.83 141.62,54.83 142.02,54.83 142.42,54.82 142.81,54.81 143.21,54.8 143.61,54.78 144,54.77 144.4,54.75 144.79,54.75 145.19,54.74 145.59,54.75 145.98,54.75 146.38,54.75 146.78,54.75 147.17,54.74 147.57,54.73 147.96,54.72 148.36,54.72 148.76,54.71 149.15,54.7 149.55,54.7 149.95,54.69 150.34,54.68 150.74,54.68 151.13,54.67 151.53,54.66 151.93,54.65 152.32,54.64 152.72,54.64 153.12,54.64 153.51,54.64 153.91,54.64 154.3,54.64 154.7,54.63 155.1,54.63 155.49,54.62 155.89,54.62 156.29,54.61 156.68,54.59 157.08,54.59 157.47,54.58 157.87,54.58 158.27,54.58 158.66,54.57 159.06,54.57 159.46,54.56 159.85,54.56 160.25,54.56 160.64,54.56 161.04,54.56 161.44,54.55 161.83,54.55 162.23,54.54 162.63,54.53 163.02,54.53 163.42,54.52 163.81,54.52 164.21,54.52 164.61,54.51 165,54.51 165.4,54.5 165.8,54.5 166.19,54.51 166.59,54.51 166.98,54.5 167.38,54.5 167.78,54.5 168.17,54.49 168.57,54.49 168.97,54.49 169.36,54.49 169.76,54.48 170.15,54.48 170.55,54.47 170.95,54.47 171.34,54.47 171.74,54.47 172.14,54.47 172.53,54.47 172.93,54.46 173.32,54.45 173.72,54.45 174.12,54.44 174.51,54.44 174.91,54.44 175.31,54.43 175.7,54.43 176.1,54.43 176.49,54.43 176.89,54.43 177.29,54.43 177.68,54.42 178.08,54.41 178.48,54.41 178.87,54.41 179.27,54.41 179.66,54.41 180.06,54.41 180.46,54.41 180.85,54.4 181.25,54.4 181.65,54.4 182.04,54.4 182.44,54.4 182.83,54.39 183.23,54.39 183.63,54.38 184.02,54.38 184.42,54.38 184.82,54.38 185.21,54.38 185.61,54.38 186,54.38 186.4,54.37 186.8,54.37 187.19,54.37 187.59,54.37 187.99,54.37 188.38,54.37 188.78,54.37 189.18,54.36 189.57,54.36 189.97,54.35 190.36,54.34 190.76,54.33 191.16,54.33 191.55,54.33 191.95,54.32 192.35,54.32 192.74,54.32 193.14,54.32 193.53,54.33 193.93,54.33 194.33,54.33 194.72,54.32 195.12,54.32 195.52,54.31 195.91,54.31 196.31,54.31 196.7,54.31 197.1,54.31 197.5,54.3 197.89,54.3 198.29,54.3 198.69,54.3 199.08,54.31 199.48,54.31 199.87,54.31 200.27,54.31 200.67,54.31 201.06,54.31 201.46,54.31 201.86,54.3 202.25,54.3 202.65,54.3 203.04,54.29 203.44,54.29 203.84,54.29 204.23,54.29 204.63,54.28 205.03,54.28 205.42,54.27 205.82,54.27 206.21,54.27 206.61,54.28 207.01,54.28 207.4,54.28 207.8,54.28 208.2,54.28 208.59,54.27 208.99,54.27 209.38,54.27 209.78,54.27 210.18,54.26 210.57,54.26 210.97,54.26 211.37,54.25 211.76,54.26 212.16,54.26 212.55,54.26 212.95,54.26 213.35,54.26 213.74,54.26 214.14,54.26 214.54,54.25 214.93,54.24 215.33,54.24 215.72,54.24 216.12,54.24 216.52,54.25 216.91,54.25 217.31,54.25 217.71,54.25 218.1,54.25 218.5,54.24 218.89,54.24 219.29,54.24 219.69,54.23 220.08,54.23 220.48,54.23 220.88,54.23 221.27,54.23 221.67,54.23 222.06,54.23 222.46,54.23 222.86,54.23 223.25,54.23 223.65,54.23 224.05,54.23 224.44,54.22 224.84,54.22 225.23,54.22 225.63,54.22 226.03,54.22 226.42,54.21 226.82,54.21 227.22,54.21 227.61,54.21 228.01,54.21 228.4,54.21 228.8,54.21 229.2,54.22 229.59,54.22 229.99,54.21 230.39,54.21 230.78,54.2 231.18,54.2 231.57,54.2 231.97,54.2 232.37,54.2 232.76,54.19 233.16,54.19 233.56,54.2 233.95,54.2 234.35,54.2 234.74,54.2 235.14,54.2 235.54,54.19 235.93,54.19 236.33,54.2 236.73,54.2 237.12,54.21 237.52,54.2 237.92,54.19 238.31,54.19 238.71,54.18 239.1,54.18 239.5,54.18 239.9,54.18 240.29,54.18 240.69,54.18 241.09,54.18 241.48,54.18 241.88,54.18 242.27,54.18 242.67,54.18 243.07,54.18 243.46,54.17 243.86,54.17 244.26,54.16 244.65,54.16 245.05,54.16 245.44,54.16 245.84,54.16 246.24,54.16 246.63,54.16 247.03,54.16 247.43,54.15 247.82,54.15 248.22,54.16 248.61,54.16 249.01,54.16 249.41,54.16 249.8,54.16 250.2,54.16 250.6,54.16 250.99,54.16 251.39,54.15 251.78,54.15 252.18,54.15 252.58,54.15 252.97,54.15 253.37,54.15 253.77,54.16 254.16,54.16 254.56,54.15 254.95,54.15 255.35,54.15 255.75,54.15 256.14,54.14 256.54,54.14 256.94,54.14 257.33,54.14 257.73,54.14 258.12,54.15 258.52,54.14 258.92,54.14 259.31,54.11 259.71,54.07 260.11,54.03 260.5,54 260.9,53.98 261.29,53.97 261.69,53.97" stroke-dasharray="none" stroke="rgb(31,120,180)" stroke-width="0.75" opacity="1" stroke-opacity="1" fill="none"/>
          </g>
          <g id="Fig:densplot_01.xyplot.lines.group.2.panel.1.1.1">
            <polyline id="Fig:densplot_01.xyplot.lines.group.2.panel.1.1.1.1" points="59,53.97 59.4,53.98 59.79,54.06 60.19,54.45 60.59,55.87 60.98,59.94 61.38,69.15 61.78,85.62 62.18,108.91 62.57,134.67 62.97,156.37 63.37,169.13 63.76,172.08 64.16,167.71 64.56,159.5 64.95,150.16 65.35,141.15 65.75,132.98 66.14,125.72 66.54,119.31 66.94,113.66 67.33,108.7 67.73,104.33 68.13,100.43 68.53,96.95 68.92,93.85 69.32,91.12 69.72,88.7 70.11,86.56 70.51,84.64 70.91,82.89 71.3,81.27 71.7,79.76 72.1,78.32 72.49,76.97 72.89,75.73 73.29,74.62 73.68,73.62 74.08,72.7 74.48,71.84 74.88,71.05 75.27,70.3 75.67,69.6 76.07,68.94 76.46,68.33 76.86,67.76 77.26,67.22 77.65,66.71 78.05,66.23 78.45,65.78 78.84,65.38 79.24,65.04 79.64,64.75 80.03,64.55 80.43,64.44 80.83,64.44 81.23,64.55 81.62,64.79 82.02,65.15 82.42,65.61 82.81,66.17 83.21,66.83 83.61,67.57 84,68.36 84.4,69.16 84.8,69.92 85.19,70.58 85.59,71.09 85.99,71.42 86.38,71.54 86.78,71.44 87.18,71.13 87.58,70.64 87.97,69.96 88.37,69.12 88.77,68.17 89.16,67.15 89.56,66.12 89.96,65.12 90.35,64.15 90.75,63.23 91.15,62.37 91.54,61.58 91.94,60.9 92.34,60.31 92.73,59.81 93.13,59.39 93.53,59.03 93.93,58.72 94.32,58.45 94.72,58.22 95.12,58.03 95.51,57.88 95.91,57.76 96.31,57.65 96.7,57.55 97.1,57.46 97.5,57.37 97.89,57.29 98.29,57.23 98.69,57.18 99.08,57.13 99.48,57.09 99.88,57.03 100.28,56.96 100.67,56.9 101.07,56.84 101.47,56.8 101.86,56.75 102.26,56.71 102.66,56.66 103.05,56.62 103.45,56.58 103.85,56.54 104.24,56.51 104.64,56.48 105.04,56.44 105.43,56.4 105.83,56.35 106.23,56.29 106.63,56.24 107.02,56.2 107.42,56.17 107.82,56.14 108.21,56.12 108.61,56.09 109.01,56.07 109.4,56.04 109.8,56.03 110.2,56.01 110.59,55.98 110.99,55.95 111.39,55.91 111.78,55.89 112.18,55.87 112.58,55.85 112.98,55.83 113.37,55.81 113.77,55.79 114.17,55.77 114.56,55.75 114.96,55.72 115.36,55.69 115.75,55.64 116.15,55.6 116.55,55.58 116.94,55.56 117.34,55.55 117.74,55.54 118.13,55.53 118.53,55.52 118.93,55.51 119.33,55.49 119.72,55.48 120.12,55.46 120.52,55.45 120.91,55.43 121.31,55.42 121.71,55.4 122.1,55.37 122.5,55.35 122.9,55.34 123.29,55.33 123.69,55.33 124.09,55.32 124.48,55.31 124.88,55.29 125.28,55.27 125.68,55.25 126.07,55.23 126.47,55.22 126.87,55.22 127.26,55.21 127.66,55.2 128.06,55.2 128.45,55.19 128.85,55.18 129.25,55.16 129.64,55.14 130.04,55.13 130.44,55.12 130.83,55.11 131.23,55.09 131.63,55.08 132.03,55.06 132.42,55.05 132.82,55.04 133.22,55.04 133.61,55.03 134.01,55.02 134.41,55 134.8,55 135.2,54.99 135.6,54.99 135.99,54.98 136.39,54.98 136.79,54.97 137.18,54.96 137.58,54.95 137.98,54.93 138.38,54.92 138.77,54.91 139.17,54.9 139.57,54.9 139.96,54.89 140.36,54.88 140.76,54.87 141.15,54.86 141.55,54.86 141.95,54.85 142.34,54.85 142.74,54.84 143.14,54.84 143.53,54.83 143.93,54.82 144.33,54.81 144.73,54.81 145.12,54.8 145.52,54.79 145.92,54.79 146.31,54.78 146.71,54.78 147.11,54.78 147.5,54.77 147.9,54.77 148.3,54.76 148.69,54.75 149.09,54.74 149.49,54.74 149.88,54.73 150.28,54.72 150.68,54.71 151.08,54.71 151.47,54.71 151.87,54.71 152.27,54.71 152.66,54.71 153.06,54.7 153.46,54.7 153.85,54.7 154.25,54.69 154.65,54.68 155.04,54.67 155.44,54.67 155.84,54.66 156.23,54.66 156.63,54.66 157.03,54.66 157.43,54.65 157.82,54.65 158.22,54.64 158.62,54.63 159.01,54.63 159.41,54.62 159.81,54.61 160.2,54.6 160.6,54.6 161,54.59 161.39,54.59 161.79,54.59 162.19,54.58 162.58,54.58 162.98,54.58 163.38,54.57 163.78,54.57 164.17,54.56 164.57,54.55 164.97,54.56 165.36,54.56 165.76,54.56 166.16,54.56 166.55,54.55 166.95,54.55 167.35,54.54 167.74,54.54 168.14,54.54 168.54,54.53 168.93,54.53 169.33,54.52 169.73,54.51 170.13,54.51 170.52,54.51 170.92,54.5 171.32,54.49 171.71,54.48 172.11,54.47 172.51,54.47 172.9,54.47 173.3,54.48 173.7,54.48 174.09,54.48 174.49,54.48 174.89,54.49 175.28,54.49 175.68,54.49 176.08,54.48 176.48,54.47 176.87,54.46 177.27,54.46 177.67,54.45 178.06,54.45 178.46,54.44 178.86,54.43 179.25,54.42 179.65,54.41 180.05,54.41 180.44,54.41 180.84,54.42 181.24,54.42 181.63,54.42 182.03,54.42 182.43,54.42 182.83,54.42 183.22,54.42 183.62,54.42 184.02,54.42 184.41,54.42 184.81,54.41 185.21,54.41 185.6,54.4 186,54.4 186.4,54.39 186.79,54.39 187.19,54.38 187.59,54.38 187.98,54.39 188.38,54.39 188.78,54.39 189.18,54.39 189.57,54.4 189.97,54.4 190.37,54.4 190.76,54.38 191.16,54.37 191.56,54.37 191.95,54.37 192.35,54.38 192.75,54.38 193.14,54.38 193.54,54.37 193.94,54.36 194.33,54.36 194.73,54.36 195.13,54.36 195.53,54.36 195.92,54.36 196.32,54.35 196.72,54.34 197.11,54.34 197.51,54.33 197.91,54.33 198.3,54.33 198.7,54.33 199.1,54.33 199.49,54.33 199.89,54.33 200.29,54.33 200.68,54.33 201.08,54.33 201.48,54.33 201.88,54.33 202.27,54.33 202.67,54.32 203.07,54.32 203.46,54.33 203.86,54.33 204.26,54.32 204.65,54.31 205.05,54.31 205.45,54.3 205.84,54.3 206.24,54.3 206.64,54.3 207.03,54.3 207.43,54.3 207.83,54.3 208.23,54.3 208.62,54.3 209.02,54.3 209.42,54.3 209.81,54.3 210.21,54.29 210.61,54.29 211,54.29 211.4,54.29 211.8,54.29 212.19,54.29 212.59,54.29 212.99,54.29 213.38,54.28 213.78,54.27 214.18,54.27 214.58,54.27 214.97,54.27 215.37,54.27 215.77,54.27 216.16,54.26 216.56,54.26 216.96,54.27 217.35,54.27 217.75,54.27 218.15,54.26 218.54,54.26 218.94,54.26 219.34,54.26 219.73,54.26 220.13,54.26 220.53,54.26 220.93,54.26 221.32,54.26 221.72,54.25 222.12,54.25 222.51,54.25 222.91,54.25 223.31,54.24 223.7,54.24 224.1,54.24 224.5,54.24 224.89,54.24 225.29,54.24 225.69,54.24 226.08,54.24 226.48,54.24 226.88,54.24 227.28,54.24 227.67,54.24 228.07,54.23 228.47,54.23 228.86,54.24 229.26,54.24 229.66,54.23 230.05,54.23 230.45,54.22 230.85,54.21 231.24,54.21 231.64,54.21 232.04,54.21 232.43,54.22 232.83,54.22 233.23,54.22 233.63,54.22 234.02,54.22 234.42,54.21 234.82,54.21 235.21,54.21 235.61,54.21 236.01,54.2 236.4,54.2 236.8,54.2 237.2,54.21 237.59,54.21 237.99,54.21 238.39,54.21 238.78,54.21 239.18,54.21 239.58,54.2 239.98,54.2 240.37,54.19 240.77,54.19 241.17,54.19 241.56,54.2 241.96,54.2 242.36,54.2 242.75,54.2 243.15,54.2 243.55,54.2 243.94,54.19 244.34,54.19 244.74,54.19 245.13,54.19 245.53,54.19 245.93,54.19 246.33,54.19 246.72,54.19 247.12,54.18 247.52,54.18 247.91,54.18 248.31,54.18 248.71,54.18 249.1,54.18 249.5,54.18 249.9,54.18 250.29,54.18 250.69,54.18 251.09,54.18 251.48,54.18 251.88,54.18 252.28,54.17 252.68,54.17 253.07,54.16 253.47,54.16 253.87,54.16 254.26,54.16 254.66,54.16 255.06,54.16 255.45,54.16 255.85,54.17 256.25,54.17 256.64,54.17 257.04,54.17 257.44,54.17 257.83,54.16 258.23,54.15 258.63,54.15 259.03,54.13 259.42,54.11 259.82,54.07 260.22,54.03 260.61,54 261.01,53.98 261.41,53.97 261.8,53.97" stroke-dasharray="none" stroke="rgb(31,120,180)" stroke-width="0.75" opacity="1" stroke-opacity="1" fill="none"/>
          </g>
          <g id="Fig:densplot_01.xyplot.lines.group.3.panel.1.1.1">
            <polyline id="Fig:densplot_01.xyplot.lines.group.3.panel.1.1.1.1" points="59.26,53.97 59.65,53.98 60.05,54.11 60.44,54.92 60.84,58.62 61.23,70.01 61.63,94.04 62.02,128.99 62.42,163.79 62.81,186.31 63.21,192.71 63.61,187.13 64,175.85 64.4,163.23 64.79,151.25 65.19,140.64 65.58,131.58 65.98,123.88 66.37,117.23 66.77,111.45 67.17,106.47 67.56,102.16 67.96,98.41 68.35,95.12 68.75,92.19 69.14,89.56 69.54,87.15 69.93,84.91 70.33,82.85 70.73,80.99 71.12,79.31 71.52,77.77 71.91,76.37 72.31,75.14 72.7,74.05 73.1,73.09 73.49,72.2 73.89,71.41 74.29,70.76 74.68,70.28 75.08,69.99 75.47,69.93 75.87,70.12 76.26,70.58 76.66,71.34 77.05,72.4 77.45,73.67 77.85,74.98 78.24,76.18 78.64,77.14 79.03,77.8 79.43,78.06 79.82,77.85 80.22,77.17 80.61,76.04 81.01,74.55 81.4,72.86 81.8,71.12 82.2,69.4 82.59,67.75 82.99,66.23 83.38,64.91 83.78,63.76 84.17,62.78 84.57,61.97 84.96,61.32 85.36,60.79 85.76,60.35 86.15,59.98 86.55,59.69 86.94,59.47 87.34,59.28 87.73,59.11 88.13,58.97 88.52,58.83 88.92,58.71 89.32,58.58 89.71,58.45 90.11,58.33 90.5,58.21 90.9,58.09 91.29,57.97 91.69,57.86 92.08,57.77 92.48,57.69 92.88,57.63 93.27,57.58 93.67,57.53 94.06,57.46 94.46,57.39 94.85,57.32 95.25,57.24 95.64,57.15 96.04,57.08 96.44,57.02 96.83,56.96 97.23,56.91 97.62,56.86 98.02,56.82 98.41,56.78 98.81,56.73 99.2,56.69 99.6,56.62 99.99,56.55 100.39,56.5 100.79,56.48 101.18,56.45 101.58,56.4 101.97,56.35 102.37,56.31 102.76,56.27 103.16,56.24 103.55,56.19 103.95,56.16 104.35,56.13 104.74,56.12 105.14,56.1 105.53,56.07 105.93,56.02 106.32,55.97 106.72,55.93 107.11,55.89 107.51,55.87 107.91,55.86 108.3,55.84 108.7,55.83 109.09,55.8 109.49,55.78 109.88,55.75 110.28,55.72 110.67,55.69 111.07,55.67 111.47,55.64 111.86,55.61 112.26,55.59 112.65,55.58 113.05,55.57 113.44,55.55 113.84,55.53 114.23,55.51 114.63,55.5 115.03,55.5 115.42,55.49 115.82,55.46 116.21,55.44 116.61,55.42 117,55.4 117.4,55.39 117.79,55.37 118.19,55.35 118.58,55.33 118.98,55.3 119.38,55.27 119.77,55.24 120.17,55.23 120.56,55.22 120.96,55.23 121.35,55.23 121.75,55.21 122.14,55.19 122.54,55.17 122.94,55.15 123.33,55.14 123.73,55.12 124.12,55.11 124.52,55.09 124.91,55.09 125.31,55.09 125.7,55.08 126.1,55.08 126.5,55.07 126.89,55.06 127.29,55.05 127.68,55.04 128.08,55.03 128.47,55.02 128.87,55.01 129.26,55 129.66,54.99 130.06,54.98 130.45,54.97 130.85,54.96 131.24,54.94 131.64,54.93 132.03,54.93 132.43,54.92 132.82,54.91 133.22,54.9 133.62,54.89 134.01,54.89 134.41,54.88 134.8,54.87 135.2,54.87 135.59,54.86 135.99,54.84 136.38,54.83 136.78,54.83 137.17,54.84 137.57,54.83 137.97,54.82 138.36,54.8 138.76,54.79 139.15,54.78 139.55,54.77 139.94,54.77 140.34,54.77 140.73,54.77 141.13,54.75 141.53,54.74 141.92,54.72 142.32,54.72 142.71,54.72 143.11,54.71 143.5,54.7 143.9,54.69 144.29,54.69 144.69,54.69 145.09,54.69 145.48,54.69 145.88,54.69 146.27,54.68 146.67,54.68 147.06,54.67 147.46,54.66 147.85,54.65 148.25,54.63 148.65,54.62 149.04,54.61 149.44,54.61 149.83,54.61 150.23,54.61 150.62,54.61 151.02,54.61 151.41,54.61 151.81,54.62 152.21,54.62 152.6,54.63 153,54.62 153.39,54.61 153.79,54.6 154.18,54.59 154.58,54.58 154.97,54.57 155.37,54.57 155.76,54.56 156.16,54.55 156.56,54.53 156.95,54.53 157.35,54.53 157.74,54.54 158.14,54.53 158.53,54.53 158.93,54.53 159.32,54.53 159.72,54.52 160.12,54.52 160.51,54.51 160.91,54.5 161.3,54.5 161.7,54.49 162.09,54.48 162.49,54.47 162.88,54.47 163.28,54.47 163.68,54.46 164.07,54.47 164.47,54.47 164.86,54.47 165.26,54.47 165.65,54.46 166.05,54.45 166.44,54.45 166.84,54.45 167.24,54.46 167.63,54.47 168.03,54.47 168.42,54.47 168.82,54.47 169.21,54.46 169.61,54.45 170,54.44 170.4,54.43 170.8,54.43 171.19,54.42 171.59,54.42 171.98,54.41 172.38,54.41 172.77,54.4 173.17,54.4 173.56,54.4 173.96,54.39 174.35,54.4 174.75,54.41 175.15,54.41 175.54,54.4 175.94,54.39 176.33,54.38 176.73,54.37 177.12,54.37 177.52,54.37 177.91,54.38 178.31,54.38 178.71,54.37 179.1,54.37 179.5,54.36 179.89,54.36 180.29,54.36 180.68,54.36 181.08,54.36 181.47,54.36 181.87,54.36 182.27,54.36 182.66,54.35 183.06,54.34 183.45,54.34 183.85,54.34 184.24,54.34 184.64,54.34 185.03,54.34 185.43,54.34 185.83,54.33 186.22,54.33 186.62,54.34 187.01,54.34 187.41,54.34 187.8,54.33 188.2,54.32 188.59,54.32 188.99,54.31 189.39,54.31 189.78,54.31 190.18,54.31 190.57,54.31 190.97,54.31 191.36,54.31 191.76,54.31 192.15,54.3 192.55,54.3 192.94,54.3 193.34,54.3 193.74,54.3 194.13,54.3 194.53,54.3 194.92,54.3 195.32,54.3 195.71,54.29 196.11,54.29 196.5,54.29 196.9,54.29 197.3,54.28 197.69,54.28 198.09,54.27 198.48,54.27 198.88,54.27 199.27,54.27 199.67,54.27 200.06,54.27 200.46,54.27 200.86,54.27 201.25,54.27 201.65,54.26 202.04,54.26 202.44,54.26 202.83,54.27 203.23,54.27 203.62,54.27 204.02,54.27 204.42,54.26 204.81,54.26 205.21,54.26 205.6,54.27 206,54.27 206.39,54.26 206.79,54.25 207.18,54.24 207.58,54.25 207.98,54.26 208.37,54.26 208.77,54.26 209.16,54.25 209.56,54.25 209.95,54.24 210.35,54.24 210.74,54.24 211.14,54.24 211.53,54.24 211.93,54.24 212.33,54.23 212.72,54.23 213.12,54.22 213.51,54.22 213.91,54.21 214.3,54.21 214.7,54.22 215.09,54.22 215.49,54.22 215.89,54.22 216.28,54.21 216.68,54.21 217.07,54.21 217.47,54.21 217.86,54.21 218.26,54.21 218.65,54.21 219.05,54.21 219.45,54.21 219.84,54.2 220.24,54.2 220.63,54.2 221.03,54.2 221.42,54.2 221.82,54.2 222.21,54.19 222.61,54.19 223.01,54.19 223.4,54.2 223.8,54.2 224.19,54.21 224.59,54.21 224.98,54.2 225.38,54.19 225.77,54.19 226.17,54.19 226.56,54.19 226.96,54.19 227.36,54.18 227.75,54.18 228.15,54.18 228.54,54.18 228.94,54.18 229.33,54.17 229.73,54.17 230.12,54.17 230.52,54.17 230.92,54.18 231.31,54.18 231.71,54.18 232.1,54.19 232.5,54.19 232.89,54.19 233.29,54.19 233.68,54.18 234.08,54.17 234.48,54.17 234.87,54.16 235.27,54.16 235.66,54.17 236.06,54.17 236.45,54.17 236.85,54.17 237.24,54.18 237.64,54.18 238.04,54.17 238.43,54.17 238.83,54.17 239.22,54.16 239.62,54.16 240.01,54.16 240.41,54.15 240.8,54.15 241.2,54.15 241.6,54.15 241.99,54.15 242.39,54.15 242.78,54.15 243.18,54.15 243.57,54.14 243.97,54.14 244.36,54.14 244.76,54.14 245.15,54.14 245.55,54.14 245.95,54.14 246.34,54.14 246.74,54.14 247.13,54.14 247.53,54.14 247.92,54.14 248.32,54.14 248.71,54.14 249.11,54.14 249.51,54.14 249.9,54.14 250.3,54.14 250.69,54.14 251.09,54.14 251.48,54.14 251.88,54.13 252.27,54.13 252.67,54.13 253.07,54.13 253.46,54.13 253.86,54.13 254.25,54.13 254.65,54.12 255.04,54.13 255.44,54.13 255.83,54.12 256.23,54.12 256.63,54.12 257.02,54.12 257.42,54.12 257.81,54.13 258.21,54.13 258.6,54.12 259,54.12 259.39,54.1 259.79,54.06 260.19,54.01 260.58,53.98 260.98,53.97 261.37,53.97" stroke-dasharray="none" stroke="rgb(31,120,180)" stroke-width="0.75" opacity="1" stroke-opacity="1" fill="none"/>
          </g>
          <g id="Fig:densplot_01.xyplot.lines.group.4.panel.1.1.1">
            <polyline id="Fig:densplot_01.xyplot.lines.group.4.panel.1.1.1.1" points="59.33,53.97 59.72,53.97 60.12,54.04 60.51,54.49 60.91,56.56 61.3,63.62 61.7,81.09 62.09,111.95 62.49,150.02 62.89,182.55 63.28,199.77 63.68,201.08 64.07,192.03 64.47,178.61 64.86,164.57 65.26,151.6 65.65,140.25 66.05,130.6 66.44,122.48 66.84,115.6 67.23,109.72 67.63,104.65 68.03,100.24 68.42,96.38 68.82,92.99 69.21,89.97 69.61,87.25 70,84.79 70.4,82.58 70.79,80.6 71.19,78.83 71.58,77.25 71.98,75.81 72.38,74.51 72.77,73.33 73.17,72.28 73.56,71.33 73.96,70.47 74.35,69.65 74.75,68.87 75.14,68.12 75.54,67.42 75.93,66.8 76.33,66.27 76.72,65.79 77.12,65.31 77.52,64.84 77.91,64.39 78.31,63.95 78.7,63.53 79.1,63.19 79.49,62.92 79.89,62.67 80.28,62.42 80.68,62.18 81.07,61.99 81.47,61.88 81.87,61.87 82.26,61.97 82.66,62.18 83.05,62.55 83.45,63.09 83.84,63.8 84.24,64.67 84.63,65.68 85.03,66.78 85.42,67.91 85.82,68.99 86.22,69.97 86.61,70.76 87.01,71.3 87.4,71.51 87.8,71.35 88.19,70.86 88.59,70.11 88.98,69.15 89.38,68.03 89.77,66.83 90.17,65.64 90.56,64.47 90.96,63.34 91.36,62.28 91.75,61.33 92.15,60.5 92.54,59.8 92.94,59.21 93.33,58.71 93.73,58.29 94.12,57.95 94.52,57.68 94.91,57.47 95.31,57.3 95.71,57.15 96.1,57.04 96.5,56.94 96.89,56.85 97.29,56.76 97.68,56.67 98.08,56.6 98.47,56.55 98.87,56.51 99.26,56.47 99.66,56.42 100.06,56.37 100.45,56.33 100.85,56.29 101.24,56.24 101.64,56.19 102.03,56.15 102.43,56.13 102.82,56.12 103.22,56.09 103.61,56.04 104.01,55.99 104.4,55.96 104.8,55.94 105.2,55.92 105.59,55.9 105.99,55.89 106.38,55.87 106.78,55.85 107.17,55.82 107.57,55.8 107.96,55.79 108.36,55.76 108.75,55.72 109.15,55.68 109.55,55.63 109.94,55.6 110.34,55.57 110.73,55.55 111.13,55.53 111.52,55.51 111.92,55.5 112.31,55.49 112.71,55.48 113.1,55.47 113.5,55.45 113.9,55.42 114.29,55.4 114.69,55.38 115.08,55.38 115.48,55.37 115.87,55.35 116.27,55.33 116.66,55.3 117.06,55.28 117.45,55.27 117.85,55.28 118.24,55.28 118.64,55.27 119.04,55.25 119.43,55.22 119.83,55.19 120.22,55.17 120.62,55.15 121.01,55.13 121.41,55.11 121.8,55.09 122.2,55.07 122.59,55.06 122.99,55.07 123.39,55.09 123.78,55.09 124.18,55.08 124.57,55.07 124.97,55.05 125.36,55.02 125.76,55.01 126.15,55 126.55,54.99 126.94,54.99 127.34,54.98 127.73,54.97 128.13,54.96 128.53,54.95 128.92,54.93 129.32,54.91 129.71,54.89 130.11,54.89 130.5,54.88 130.9,54.88 131.29,54.88 131.69,54.88 132.08,54.87 132.48,54.86 132.88,54.85 133.27,54.85 133.67,54.83 134.06,54.81 134.46,54.79 134.85,54.78 135.25,54.76 135.64,54.76 136.04,54.75 136.43,54.75 136.83,54.75 137.23,54.75 137.62,54.74 138.02,54.74 138.41,54.73 138.81,54.73 139.2,54.73 139.6,54.73 139.99,54.72 140.39,54.71 140.78,54.7 141.18,54.69 141.57,54.68 141.97,54.67 142.37,54.67 142.76,54.67 143.16,54.67 143.55,54.67 143.95,54.66 144.34,54.66 144.74,54.65 145.13,54.65 145.53,54.64 145.92,54.64 146.32,54.63 146.72,54.63 147.11,54.62 147.51,54.61 147.9,54.6 148.3,54.58 148.69,54.57 149.09,54.56 149.48,54.56 149.88,54.56 150.27,54.56 150.67,54.56 151.07,54.56 151.46,54.56 151.86,54.56 152.25,54.56 152.65,54.55 153.04,54.55 153.44,54.54 153.83,54.53 154.23,54.51 154.62,54.5 155.02,54.5 155.41,54.5 155.81,54.51 156.21,54.51 156.6,54.51 157,54.5 157.39,54.5 157.79,54.5 158.18,54.5 158.58,54.49 158.97,54.48 159.37,54.48 159.76,54.48 160.16,54.48 160.56,54.47 160.95,54.47 161.35,54.46 161.74,54.46 162.14,54.45 162.53,54.44 162.93,54.44 163.32,54.44 163.72,54.45 164.11,54.45 164.51,54.44 164.91,54.43 165.3,54.43 165.7,54.42 166.09,54.42 166.49,54.41 166.88,54.41 167.28,54.4 167.67,54.39 168.07,54.39 168.46,54.39 168.86,54.39 169.25,54.4 169.65,54.4 170.05,54.39 170.44,54.38 170.84,54.38 171.23,54.38 171.63,54.39 172.02,54.38 172.42,54.38 172.81,54.38 173.21,54.38 173.6,54.38 174,54.37 174.4,54.37 174.79,54.37 175.19,54.36 175.58,54.36 175.98,54.35 176.37,54.35 176.77,54.35 177.16,54.34 177.56,54.34 177.95,54.34 178.35,54.34 178.75,54.35 179.14,54.34 179.54,54.33 179.93,54.32 180.33,54.32 180.72,54.32 181.12,54.32 181.51,54.32 181.91,54.32 182.3,54.31 182.7,54.31 183.09,54.31 183.49,54.31 183.89,54.31 184.28,54.31 184.68,54.3 185.07,54.3 185.47,54.29 185.86,54.29 186.26,54.29 186.65,54.3 187.05,54.3 187.44,54.3 187.84,54.3 188.24,54.29 188.63,54.28 189.03,54.28 189.42,54.27 189.82,54.27 190.21,54.27 190.61,54.28 191,54.28 191.4,54.27 191.79,54.27 192.19,54.26 192.58,54.26 192.98,54.26 193.38,54.26 193.77,54.26 194.17,54.26 194.56,54.25 194.96,54.25 195.35,54.25 195.75,54.25 196.14,54.26 196.54,54.26 196.93,54.25 197.33,54.25 197.73,54.25 198.12,54.25 198.52,54.25 198.91,54.24 199.31,54.24 199.7,54.24 200.1,54.24 200.49,54.24 200.89,54.24 201.28,54.24 201.68,54.23 202.08,54.23 202.47,54.23 202.87,54.23 203.26,54.23 203.66,54.22 204.05,54.22 204.45,54.23 204.84,54.23 205.24,54.24 205.63,54.23 206.03,54.23 206.42,54.22 206.82,54.22 207.22,54.22 207.61,54.21 208.01,54.2 208.4,54.19 208.8,54.19 209.19,54.2 209.59,54.2 209.98,54.21 210.38,54.21 210.77,54.21 211.17,54.21 211.57,54.2 211.96,54.2 212.36,54.2 212.75,54.2 213.15,54.2 213.54,54.19 213.94,54.19 214.33,54.19 214.73,54.19 215.12,54.19 215.52,54.19 215.92,54.2 216.31,54.2 216.71,54.2 217.1,54.19 217.5,54.19 217.89,54.18 218.29,54.18 218.68,54.17 219.08,54.18 219.47,54.18 219.87,54.18 220.26,54.18 220.66,54.18 221.06,54.18 221.45,54.17 221.85,54.17 222.24,54.17 222.64,54.17 223.03,54.17 223.43,54.17 223.82,54.17 224.22,54.17 224.61,54.16 225.01,54.16 225.41,54.17 225.8,54.17 226.2,54.16 226.59,54.16 226.99,54.16 227.38,54.16 227.78,54.16 228.17,54.16 228.57,54.16 228.96,54.15 229.36,54.15 229.76,54.15 230.15,54.15 230.55,54.15 230.94,54.15 231.34,54.14 231.73,54.14 232.13,54.14 232.52,54.14 232.92,54.14 233.31,54.13 233.71,54.13 234.1,54.14 234.5,54.14 234.9,54.14 235.29,54.13 235.69,54.13 236.08,54.14 236.48,54.14 236.87,54.14 237.27,54.13 237.66,54.13 238.06,54.13 238.45,54.13 238.85,54.14 239.25,54.13 239.64,54.12 240.04,54.12 240.43,54.13 240.83,54.13 241.22,54.13 241.62,54.13 242.01,54.13 242.41,54.13 242.8,54.13 243.2,54.13 243.59,54.13 243.99,54.13 244.39,54.12 244.78,54.12 245.18,54.12 245.57,54.12 245.97,54.12 246.36,54.12 246.76,54.12 247.15,54.12 247.55,54.12 247.94,54.12 248.34,54.12 248.74,54.11 249.13,54.12 249.53,54.12 249.92,54.12 250.32,54.12 250.71,54.12 251.11,54.12 251.5,54.12 251.9,54.11 252.29,54.11 252.69,54.11 253.09,54.12 253.48,54.12 253.88,54.11 254.27,54.11 254.67,54.11 255.06,54.11 255.46,54.11 255.85,54.11 256.25,54.11 256.64,54.11 257.04,54.11 257.43,54.11 257.83,54.11 258.23,54.11 258.62,54.11 259.02,54.1 259.41,54.07 259.81,54.04 260.2,54 260.6,53.98 260.99,53.97 261.39,53.97" stroke-dasharray="none" stroke="rgb(31,120,180)" stroke-width="0.75" opacity="1" stroke-opacity="1" fill="none"/>
          </g>
          <g id="Fig:densplot_01.xyplot.lines.group.5.panel.1.1.1">
            <polyline id="Fig:densplot_01.xyplot.lines.group.5.panel.1.1.1.1" points="59.34,53.97 59.74,53.98 60.13,54.09 60.53,54.87 60.92,58.66 61.32,71.17 61.71,99.59 62.11,143.56 62.5,188.84 62.89,217.17 63.29,222.22 63.68,210.35 64.08,191.81 64.47,173.14 64.87,156.83 65.26,143.24 65.66,132.07 66.05,122.86 66.45,115.28 66.84,108.99 67.24,103.64 67.63,99.02 68.03,94.98 68.42,91.49 68.82,88.46 69.21,85.81 69.61,83.47 70,81.43 70.4,79.63 70.79,77.99 71.19,76.47 71.58,75.11 71.98,73.99 72.37,73.12 72.77,72.51 73.16,72.19 73.56,72.26 73.95,72.81 74.35,73.82 74.74,75.17 75.14,76.71 75.53,78.26 75.92,79.62 76.32,80.58 76.71,80.99 77.11,80.74 77.5,79.86 77.9,78.44 78.29,76.62 78.69,74.52 79.08,72.33 79.48,70.21 79.87,68.25 80.27,66.5 80.66,65.02 81.06,63.77 81.45,62.75 81.85,61.94 82.24,61.32 82.64,60.85 83.03,60.48 83.43,60.14 83.82,59.83 84.22,59.58 84.61,59.41 85.01,59.28 85.4,59.11 85.8,58.95 86.19,58.8 86.59,58.66 86.98,58.51 87.38,58.38 87.77,58.25 88.17,58.14 88.56,58.06 88.95,57.99 89.35,57.91 89.74,57.84 90.14,57.78 90.53,57.72 90.93,57.61 91.32,57.48 91.72,57.36 92.11,57.28 92.51,57.24 92.9,57.2 93.3,57.14 93.69,57.07 94.09,56.99 94.48,56.92 94.88,56.85 95.27,56.8 95.67,56.76 96.06,56.72 96.46,56.65 96.85,56.59 97.25,56.53 97.64,56.48 98.04,56.44 98.43,56.41 98.83,56.37 99.22,56.33 99.62,56.29 100.01,56.25 100.41,56.22 100.8,56.17 101.2,56.13 101.59,56.08 101.98,56.04 102.38,56 102.77,55.97 103.17,55.96 103.56,55.94 103.96,55.92 104.35,55.89 104.75,55.86 105.14,55.84 105.54,55.81 105.93,55.77 106.33,55.73 106.72,55.7 107.12,55.69 107.51,55.68 107.91,55.66 108.3,55.64 108.7,55.62 109.09,55.61 109.49,55.58 109.88,55.54 110.28,55.52 110.67,55.5 111.07,55.49 111.46,55.48 111.86,55.46 112.25,55.43 112.65,55.41 113.04,55.38 113.44,55.35 113.83,55.34 114.23,55.32 114.62,55.3 115.01,55.27 115.41,55.25 115.8,55.24 116.2,55.24 116.59,55.24 116.99,55.22 117.38,55.21 117.78,55.2 118.17,55.18 118.57,55.15 118.96,55.12 119.36,55.1 119.75,55.09 120.15,55.08 120.54,55.08 120.94,55.08 121.33,55.09 121.73,55.09 122.12,55.08 122.52,55.05 122.91,55.01 123.31,54.98 123.7,54.96 124.1,54.95 124.49,54.96 124.89,54.95 125.28,54.94 125.68,54.93 126.07,54.93 126.47,54.91 126.86,54.9 127.26,54.88 127.65,54.86 128.04,54.85 128.44,54.86 128.83,54.86 129.23,54.86 129.62,54.84 130.02,54.83 130.41,54.81 130.81,54.8 131.2,54.8 131.6,54.8 131.99,54.78 132.39,54.76 132.78,54.75 133.18,54.75 133.57,54.74 133.97,54.74 134.36,54.74 134.76,54.74 135.15,54.74 135.55,54.72 135.94,54.7 136.34,54.7 136.73,54.7 137.13,54.7 137.52,54.69 137.92,54.68 138.31,54.67 138.71,54.65 139.1,54.65 139.5,54.65 139.89,54.64 140.29,54.63 140.68,54.61 141.07,54.6 141.47,54.6 141.86,54.61 142.26,54.61 142.65,54.6 143.05,54.6 143.44,54.6 143.84,54.6 144.23,54.6 144.63,54.59 145.02,54.57 145.42,54.55 145.81,54.55 146.21,54.55 146.6,54.54 147,54.52 147.39,54.51 147.79,54.5 148.18,54.51 148.58,54.52 148.97,54.52 149.37,54.52 149.76,54.52 150.16,54.52 150.55,54.52 150.95,54.51 151.34,54.51 151.74,54.51 152.13,54.5 152.53,54.49 152.92,54.48 153.32,54.47 153.71,54.47 154.1,54.47 154.5,54.47 154.89,54.46 155.29,54.45 155.68,54.44 156.08,54.44 156.47,54.43 156.87,54.43 157.26,54.43 157.66,54.44 158.05,54.44 158.45,54.44 158.84,54.43 159.24,54.43 159.63,54.43 160.03,54.42 160.42,54.42 160.82,54.42 161.21,54.42 161.61,54.4 162,54.38 162.4,54.37 162.79,54.38 163.19,54.38 163.58,54.38 163.98,54.38 164.37,54.37 164.77,54.38 165.16,54.38 165.56,54.37 165.95,54.37 166.35,54.37 166.74,54.36 167.13,54.35 167.53,54.35 167.92,54.35 168.32,54.35 168.71,54.34 169.11,54.33 169.5,54.33 169.9,54.33 170.29,54.33 170.69,54.33 171.08,54.33 171.48,54.32 171.87,54.32 172.27,54.33 172.66,54.33 173.06,54.32 173.45,54.31 173.85,54.31 174.24,54.31 174.64,54.32 175.03,54.32 175.43,54.32 175.82,54.31 176.22,54.31 176.61,54.3 177.01,54.29 177.4,54.28 177.8,54.27 178.19,54.27 178.59,54.27 178.98,54.28 179.38,54.29 179.77,54.3 180.16,54.29 180.56,54.29 180.95,54.28 181.35,54.29 181.74,54.29 182.14,54.29 182.53,54.28 182.93,54.28 183.32,54.27 183.72,54.26 184.11,54.26 184.51,54.26 184.9,54.25 185.3,54.26 185.69,54.26 186.09,54.25 186.48,54.25 186.88,54.25 187.27,54.25 187.67,54.25 188.06,54.25 188.46,54.24 188.85,54.24 189.25,54.24 189.64,54.24 190.04,54.23 190.43,54.23 190.83,54.23 191.22,54.23 191.62,54.23 192.01,54.23 192.41,54.22 192.8,54.22 193.19,54.22 193.59,54.22 193.98,54.23 194.38,54.23 194.77,54.23 195.17,54.23 195.56,54.23 195.96,54.22 196.35,54.21 196.75,54.21 197.14,54.2 197.54,54.2 197.93,54.2 198.33,54.2 198.72,54.2 199.12,54.2 199.51,54.2 199.91,54.2 200.3,54.2 200.7,54.2 201.09,54.2 201.49,54.2 201.88,54.19 202.28,54.19 202.67,54.19 203.07,54.19 203.46,54.2 203.86,54.2 204.25,54.19 204.65,54.19 205.04,54.18 205.44,54.19 205.83,54.19 206.22,54.18 206.62,54.18 207.01,54.17 207.41,54.17 207.8,54.17 208.2,54.18 208.59,54.18 208.99,54.18 209.38,54.17 209.78,54.16 210.17,54.16 210.57,54.16 210.96,54.16 211.36,54.16 211.75,54.17 212.15,54.17 212.54,54.17 212.94,54.17 213.33,54.17 213.73,54.16 214.12,54.16 214.52,54.15 214.91,54.16 215.31,54.16 215.7,54.16 216.1,54.17 216.49,54.17 216.89,54.17 217.28,54.17 217.68,54.17 218.07,54.16 218.47,54.16 218.86,54.15 219.25,54.15 219.65,54.15 220.04,54.14 220.44,54.14 220.83,54.14 221.23,54.14 221.62,54.14 222.02,54.14 222.41,54.14 222.81,54.14 223.2,54.14 223.6,54.14 223.99,54.14 224.39,54.13 224.78,54.13 225.18,54.14 225.57,54.14 225.97,54.13 226.36,54.13 226.76,54.13 227.15,54.13 227.55,54.13 227.94,54.13 228.34,54.13 228.73,54.13 229.13,54.13 229.52,54.13 229.92,54.13 230.31,54.13 230.71,54.13 231.1,54.13 231.5,54.13 231.89,54.13 232.28,54.12 232.68,54.12 233.07,54.11 233.47,54.1 233.86,54.1 234.26,54.11 234.65,54.12 235.05,54.11 235.44,54.11 235.84,54.11 236.23,54.11 236.63,54.12 237.02,54.11 237.42,54.11 237.81,54.1 238.21,54.1 238.6,54.1 239,54.1 239.39,54.1 239.79,54.1 240.18,54.1 240.58,54.09 240.97,54.08 241.37,54.08 241.76,54.09 242.16,54.09 242.55,54.1 242.95,54.1 243.34,54.1 243.74,54.1 244.13,54.1 244.53,54.1 244.92,54.1 245.31,54.09 245.71,54.09 246.1,54.09 246.5,54.09 246.89,54.1 247.29,54.1 247.68,54.1 248.08,54.1 248.47,54.1 248.87,54.1 249.26,54.1 249.66,54.09 250.05,54.09 250.45,54.09 250.84,54.09 251.24,54.09 251.63,54.09 252.03,54.09 252.42,54.09 252.82,54.09 253.21,54.09 253.61,54.09 254,54.09 254.4,54.09 254.79,54.08 255.19,54.08 255.58,54.08 255.98,54.08 256.37,54.08 256.77,54.09 257.16,54.09 257.56,54.09 257.95,54.09 258.34,54.09 258.74,54.08 259.13,54.07 259.53,54.06 259.92,54.02 260.32,53.99 260.71,53.97 261.11,53.97" stroke-dasharray="none" stroke="rgb(31,120,180)" stroke-width="0.75" opacity="1" stroke-opacity="1" fill="none"/>
          </g>
          <g id="Fig:densplot_01.xyplot.lines.group.6.panel.1.1.1">
            <polyline id="Fig:densplot_01.xyplot.lines.group.6.panel.1.1.1.1" points="59.04,53.97 59.44,53.97 59.83,54.04 60.23,54.48 60.63,56.47 61.02,63.19 61.42,79.69 61.81,108.72 62.21,144.83 62.61,175.46 63,191.25 63.4,192.27 63.79,184.07 64.19,172.17 64.59,159.86 64.98,148.64 65.38,138.86 65.77,130.37 66.17,122.97 66.57,116.5 66.96,110.85 67.36,105.91 67.75,101.63 68.15,97.91 68.55,94.66 68.94,91.77 69.34,89.13 69.73,86.71 70.13,84.5 70.53,82.49 70.92,80.68 71.32,79.03 71.71,77.51 72.11,76.12 72.51,74.85 72.9,73.7 73.3,72.64 73.69,71.67 74.09,70.8 74.49,70 74.88,69.27 75.28,68.59 75.67,67.98 76.07,67.44 76.47,67 76.86,66.64 77.26,66.4 77.65,66.34 78.05,66.52 78.45,66.95 78.84,67.6 79.24,68.43 79.64,69.42 80.03,70.55 80.43,71.72 80.82,72.81 81.22,73.74 81.62,74.44 82.01,74.82 82.41,74.77 82.8,74.28 83.2,73.45 83.6,72.37 83.99,71.13 84.39,69.75 84.78,68.31 85.18,66.86 85.58,65.47 85.97,64.17 86.37,63.03 86.76,62.05 87.16,61.21 87.56,60.51 87.95,59.93 88.35,59.48 88.74,59.13 89.14,58.83 89.54,58.58 89.93,58.38 90.33,58.23 90.72,58.09 91.12,57.97 91.52,57.85 91.91,57.74 92.31,57.64 92.7,57.54 93.1,57.44 93.5,57.35 93.89,57.27 94.29,57.21 94.68,57.15 95.08,57.1 95.48,57.05 95.87,56.98 96.27,56.91 96.66,56.83 97.06,56.77 97.46,56.72 97.85,56.68 98.25,56.64 98.64,56.61 99.04,56.57 99.44,56.52 99.83,56.46 100.23,56.4 100.62,56.34 101.02,56.29 101.42,56.26 101.81,56.23 102.21,56.2 102.6,56.18 103,56.15 103.4,56.12 103.79,56.09 104.19,56.06 104.58,56.04 104.98,56.01 105.38,55.97 105.77,55.93 106.17,55.9 106.56,55.87 106.96,55.84 107.36,55.81 107.75,55.79 108.15,55.76 108.54,55.74 108.94,55.72 109.34,55.7 109.73,55.68 110.13,55.65 110.52,55.62 110.92,55.59 111.32,55.56 111.71,55.55 112.11,55.53 112.5,55.5 112.9,55.48 113.3,55.46 113.69,55.44 114.09,55.43 114.48,55.41 114.88,55.38 115.28,55.35 115.67,55.34 116.07,55.34 116.46,55.33 116.86,55.32 117.26,55.31 117.65,55.3 118.05,55.3 118.44,55.29 118.84,55.27 119.24,55.24 119.63,55.21 120.03,55.19 120.43,55.18 120.82,55.17 121.22,55.16 121.61,55.15 122.01,55.13 122.41,55.11 122.8,55.09 123.2,55.07 123.59,55.06 123.99,55.06 124.39,55.06 124.78,55.06 125.18,55.04 125.57,55.02 125.97,55.01 126.37,55 126.76,54.99 127.16,54.99 127.55,54.98 127.95,54.98 128.35,54.97 128.74,54.96 129.14,54.96 129.53,54.94 129.93,54.93 130.33,54.91 130.72,54.9 131.12,54.89 131.51,54.88 131.91,54.87 132.31,54.86 132.7,54.86 133.1,54.85 133.49,54.84 133.89,54.82 134.29,54.81 134.68,54.81 135.08,54.8 135.47,54.8 135.87,54.79 136.27,54.78 136.66,54.77 137.06,54.76 137.45,54.76 137.85,54.75 138.25,54.73 138.64,54.72 139.04,54.72 139.43,54.72 139.83,54.72 140.23,54.72 140.62,54.71 141.02,54.71 141.41,54.7 141.81,54.69 142.21,54.68 142.6,54.67 143,54.67 143.39,54.67 143.79,54.67 144.19,54.66 144.58,54.65 144.98,54.64 145.37,54.63 145.77,54.62 146.17,54.61 146.56,54.61 146.96,54.61 147.35,54.61 147.75,54.61 148.15,54.62 148.54,54.61 148.94,54.59 149.33,54.58 149.73,54.58 150.13,54.58 150.52,54.58 150.92,54.57 151.31,54.57 151.71,54.56 152.11,54.55 152.5,54.54 152.9,54.53 153.29,54.53 153.69,54.53 154.09,54.53 154.48,54.54 154.88,54.53 155.27,54.53 155.67,54.52 156.07,54.52 156.46,54.52 156.86,54.51 157.25,54.49 157.65,54.49 158.05,54.49 158.44,54.49 158.84,54.48 159.23,54.48 159.63,54.47 160.03,54.46 160.42,54.45 160.82,54.45 161.21,54.46 161.61,54.47 162.01,54.48 162.4,54.48 162.8,54.46 163.2,54.44 163.59,54.43 163.99,54.43 164.38,54.43 164.78,54.43 165.18,54.43 165.57,54.43 165.97,54.43 166.36,54.42 166.76,54.42 167.16,54.41 167.55,54.41 167.95,54.41 168.34,54.42 168.74,54.42 169.14,54.42 169.53,54.41 169.93,54.4 170.32,54.4 170.72,54.4 171.12,54.4 171.51,54.39 171.91,54.38 172.3,54.37 172.7,54.37 173.1,54.37 173.49,54.37 173.89,54.38 174.28,54.37 174.68,54.36 175.08,54.35 175.47,54.34 175.87,54.34 176.26,54.35 176.66,54.35 177.06,54.35 177.45,54.34 177.85,54.34 178.24,54.34 178.64,54.34 179.04,54.34 179.43,54.34 179.83,54.35 180.22,54.34 180.62,54.32 181.02,54.31 181.41,54.31 181.81,54.31 182.2,54.31 182.6,54.31 183,54.31 183.39,54.31 183.79,54.31 184.18,54.31 184.58,54.31 184.98,54.3 185.37,54.3 185.77,54.29 186.16,54.29 186.56,54.29 186.96,54.28 187.35,54.28 187.75,54.28 188.14,54.28 188.54,54.28 188.94,54.28 189.33,54.28 189.73,54.28 190.12,54.28 190.52,54.27 190.92,54.27 191.31,54.26 191.71,54.25 192.1,54.25 192.5,54.25 192.9,54.26 193.29,54.26 193.69,54.25 194.08,54.25 194.48,54.25 194.88,54.25 195.27,54.26 195.67,54.26 196.06,54.25 196.46,54.25 196.86,54.25 197.25,54.25 197.65,54.25 198.04,54.25 198.44,54.25 198.84,54.25 199.23,54.24 199.63,54.24 200.02,54.24 200.42,54.24 200.82,54.23 201.21,54.23 201.61,54.24 202,54.24 202.4,54.23 202.8,54.23 203.19,54.23 203.59,54.23 203.99,54.22 204.38,54.22 204.78,54.22 205.17,54.22 205.57,54.22 205.97,54.22 206.36,54.22 206.76,54.22 207.15,54.22 207.55,54.22 207.95,54.22 208.34,54.21 208.74,54.2 209.13,54.2 209.53,54.2 209.93,54.2 210.32,54.2 210.72,54.2 211.11,54.2 211.51,54.2 211.91,54.2 212.3,54.2 212.7,54.2 213.09,54.2 213.49,54.19 213.89,54.19 214.28,54.19 214.68,54.19 215.07,54.19 215.47,54.19 215.87,54.19 216.26,54.19 216.66,54.19 217.05,54.19 217.45,54.18 217.85,54.17 218.24,54.17 218.64,54.17 219.03,54.17 219.43,54.17 219.83,54.17 220.22,54.17 220.62,54.18 221.01,54.18 221.41,54.19 221.81,54.18 222.2,54.18 222.6,54.18 222.99,54.17 223.39,54.17 223.79,54.17 224.18,54.17 224.58,54.17 224.97,54.16 225.37,54.15 225.77,54.15 226.16,54.15 226.56,54.15 226.95,54.16 227.35,54.16 227.75,54.17 228.14,54.17 228.54,54.17 228.93,54.16 229.33,54.16 229.73,54.15 230.12,54.15 230.52,54.15 230.91,54.16 231.31,54.16 231.71,54.16 232.1,54.16 232.5,54.16 232.89,54.15 233.29,54.15 233.69,54.15 234.08,54.15 234.48,54.15 234.87,54.14 235.27,54.14 235.67,54.14 236.06,54.14 236.46,54.14 236.85,54.14 237.25,54.14 237.65,54.14 238.04,54.14 238.44,54.14 238.83,54.14 239.23,54.13 239.63,54.13 240.02,54.12 240.42,54.12 240.81,54.13 241.21,54.13 241.61,54.13 242,54.13 242.4,54.13 242.79,54.13 243.19,54.13 243.59,54.13 243.98,54.13 244.38,54.13 244.77,54.12 245.17,54.11 245.57,54.11 245.96,54.12 246.36,54.12 246.76,54.12 247.15,54.12 247.55,54.12 247.94,54.12 248.34,54.12 248.74,54.12 249.13,54.12 249.53,54.13 249.92,54.13 250.32,54.12 250.72,54.12 251.11,54.12 251.51,54.12 251.9,54.12 252.3,54.11 252.7,54.11 253.09,54.1 253.49,54.1 253.88,54.1 254.28,54.1 254.68,54.1 255.07,54.11 255.47,54.12 255.86,54.12 256.26,54.12 256.66,54.11 257.05,54.11 257.45,54.1 257.84,54.11 258.24,54.11 258.64,54.1 259.03,54.1 259.43,54.08 259.82,54.04 260.22,54.01 260.62,53.98 261.01,53.97 261.41,53.97" stroke-dasharray="none" stroke="rgb(31,120,180)" stroke-width="0.75" opacity="1" stroke-opacity="1" fill="none"/>
          </g>
          <g id="Fig:densplot_01.xyplot.lines.group.7.panel.1.1.1">
            <polyline id="Fig:densplot_01.xyplot.lines.group.7.panel.1.1.1.1" points="59.01,53.97 59.4,53.98 59.8,54.1 60.2,54.71 60.59,57.11 60.99,64.01 61.39,78.72 61.78,102.18 62.18,130.23 62.58,155.08 62.97,170.36 63.37,174.8 63.76,171.28 64.16,163.68 64.56,154.82 64.95,146.1 65.35,138 65.75,130.67 66.14,124.15 66.54,118.35 66.93,113.2 67.33,108.62 67.73,104.55 68.12,100.91 68.52,97.67 68.92,94.77 69.31,92.16 69.71,89.78 70.11,87.58 70.5,85.52 70.9,83.62 71.29,81.86 71.69,80.26 72.09,78.83 72.48,77.52 72.88,76.28 73.28,75.1 73.67,74 74.07,72.99 74.46,72.05 74.86,71.18 75.26,70.37 75.65,69.6 76.05,68.88 76.45,68.22 76.84,67.61 77.24,67.07 77.64,66.57 78.03,66.12 78.43,65.68 78.82,65.28 79.22,64.88 79.62,64.48 80.01,64.09 80.41,63.7 80.81,63.35 81.2,63.03 81.6,62.74 82,62.47 82.39,62.25 82.79,62.07 83.18,61.94 83.58,61.87 83.98,61.87 84.37,61.95 84.77,62.12 85.17,62.36 85.56,62.69 85.96,63.11 86.35,63.6 86.75,64.14 87.15,64.71 87.54,65.31 87.94,65.92 88.34,66.52 88.73,67.07 89.13,67.5 89.53,67.77 89.92,67.87 90.32,67.83 90.71,67.68 91.11,67.44 91.51,67.09 91.9,66.64 92.3,66.09 92.7,65.49 93.09,64.85 93.49,64.2 93.88,63.53 94.28,62.88 94.68,62.24 95.07,61.63 95.47,61.04 95.87,60.48 96.26,59.96 96.66,59.48 97.06,59.03 97.45,58.64 97.85,58.3 98.24,58.01 98.64,57.76 99.04,57.53 99.43,57.32 99.83,57.14 100.23,56.98 100.62,56.84 101.02,56.72 101.41,56.61 101.81,56.52 102.21,56.43 102.6,56.35 103,56.29 103.4,56.24 103.79,56.19 104.19,56.14 104.59,56.09 104.98,56.04 105.38,56 105.77,55.97 106.17,55.93 106.57,55.89 106.96,55.85 107.36,55.83 107.76,55.82 108.15,55.81 108.55,55.8 108.95,55.77 109.34,55.74 109.74,55.72 110.13,55.69 110.53,55.67 110.93,55.64 111.32,55.61 111.72,55.58 112.12,55.55 112.51,55.52 112.91,55.5 113.3,55.48 113.7,55.45 114.1,55.42 114.49,55.4 114.89,55.38 115.29,55.37 115.68,55.37 116.08,55.36 116.48,55.35 116.87,55.33 117.27,55.3 117.66,55.27 118.06,55.25 118.46,55.23 118.85,55.22 119.25,55.2 119.65,55.19 120.04,55.19 120.44,55.18 120.83,55.16 121.23,55.14 121.63,55.12 122.02,55.11 122.42,55.1 122.82,55.1 123.21,55.08 123.61,55.07 124.01,55.05 124.4,55.03 124.8,55.03 125.19,55.02 125.59,55.01 125.99,55 126.38,54.99 126.78,54.99 127.18,54.98 127.57,54.97 127.97,54.97 128.37,54.97 128.76,54.96 129.16,54.94 129.55,54.91 129.95,54.9 130.35,54.88 130.74,54.87 131.14,54.86 131.54,54.86 131.93,54.87 132.33,54.87 132.72,54.87 133.12,54.85 133.52,54.83 133.91,54.81 134.31,54.8 134.71,54.8 135.1,54.8 135.5,54.79 135.9,54.77 136.29,54.76 136.69,54.75 137.08,54.75 137.48,54.75 137.88,54.75 138.27,54.74 138.67,54.73 139.07,54.72 139.46,54.72 139.86,54.71 140.25,54.7 140.65,54.69 141.05,54.68 141.44,54.67 141.84,54.67 142.24,54.67 142.63,54.67 143.03,54.67 143.43,54.67 143.82,54.66 144.22,54.65 144.61,54.65 145.01,54.64 145.41,54.63 145.8,54.62 146.2,54.62 146.6,54.61 146.99,54.6 147.39,54.6 147.78,54.59 148.18,54.59 148.58,54.59 148.97,54.59 149.37,54.58 149.77,54.57 150.16,54.56 150.56,54.56 150.96,54.56 151.35,54.56 151.75,54.55 152.14,54.55 152.54,54.55 152.94,54.55 153.33,54.55 153.73,54.54 154.13,54.53 154.52,54.53 154.92,54.53 155.32,54.53 155.71,54.53 156.11,54.53 156.5,54.53 156.9,54.52 157.3,54.51 157.69,54.5 158.09,54.49 158.49,54.48 158.88,54.47 159.28,54.47 159.67,54.46 160.07,54.46 160.47,54.46 160.86,54.46 161.26,54.47 161.66,54.48 162.05,54.47 162.45,54.47 162.85,54.46 163.24,54.45 163.64,54.44 164.03,54.44 164.43,54.44 164.83,54.44 165.22,54.43 165.62,54.43 166.02,54.42 166.41,54.43 166.81,54.43 167.2,54.43 167.6,54.42 168,54.41 168.39,54.41 168.79,54.41 169.19,54.41 169.58,54.41 169.98,54.4 170.38,54.39 170.77,54.38 171.17,54.38 171.56,54.38 171.96,54.39 172.36,54.4 172.75,54.4 173.15,54.4 173.55,54.39 173.94,54.38 174.34,54.37 174.74,54.36 175.13,54.36 175.53,54.35 175.92,54.35 176.32,54.35 176.72,54.35 177.11,54.35 177.51,54.34 177.91,54.33 178.3,54.32 178.7,54.32 179.09,54.32 179.49,54.32 179.89,54.32 180.28,54.32 180.68,54.32 181.08,54.32 181.47,54.32 181.87,54.33 182.27,54.33 182.66,54.33 183.06,54.33 183.45,54.33 183.85,54.33 184.25,54.32 184.64,54.31 185.04,54.3 185.44,54.29 185.83,54.28 186.23,54.28 186.62,54.28 187.02,54.28 187.42,54.29 187.81,54.29 188.21,54.3 188.61,54.3 189,54.3 189.4,54.3 189.8,54.29 190.19,54.29 190.59,54.28 190.98,54.28 191.38,54.27 191.78,54.27 192.17,54.27 192.57,54.27 192.97,54.27 193.36,54.27 193.76,54.27 194.15,54.27 194.55,54.27 194.95,54.26 195.34,54.25 195.74,54.25 196.14,54.25 196.53,54.25 196.93,54.26 197.33,54.26 197.72,54.26 198.12,54.26 198.51,54.26 198.91,54.26 199.31,54.25 199.7,54.25 200.1,54.25 200.5,54.25 200.89,54.25 201.29,54.25 201.69,54.24 202.08,54.23 202.48,54.23 202.87,54.22 203.27,54.22 203.67,54.21 204.06,54.21 204.46,54.21 204.86,54.21 205.25,54.22 205.65,54.22 206.04,54.23 206.44,54.23 206.84,54.22 207.23,54.22 207.63,54.22 208.03,54.21 208.42,54.21 208.82,54.21 209.22,54.21 209.61,54.21 210.01,54.21 210.4,54.21 210.8,54.21 211.2,54.2 211.59,54.2 211.99,54.2 212.39,54.2 212.78,54.2 213.18,54.2 213.57,54.2 213.97,54.2 214.37,54.2 214.76,54.2 215.16,54.2 215.56,54.2 215.95,54.2 216.35,54.2 216.75,54.2 217.14,54.2 217.54,54.2 217.93,54.2 218.33,54.19 218.73,54.19 219.12,54.18 219.52,54.18 219.92,54.18 220.31,54.18 220.71,54.19 221.1,54.19 221.5,54.19 221.9,54.19 222.29,54.19 222.69,54.19 223.09,54.18 223.48,54.18 223.88,54.18 224.28,54.18 224.67,54.18 225.07,54.18 225.46,54.18 225.86,54.18 226.26,54.18 226.65,54.18 227.05,54.18 227.45,54.17 227.84,54.17 228.24,54.17 228.64,54.17 229.03,54.16 229.43,54.16 229.82,54.16 230.22,54.16 230.62,54.16 231.01,54.16 231.41,54.16 231.81,54.16 232.2,54.16 232.6,54.16 232.99,54.15 233.39,54.15 233.79,54.16 234.18,54.16 234.58,54.15 234.98,54.15 235.37,54.14 235.77,54.14 236.17,54.14 236.56,54.14 236.96,54.14 237.35,54.15 237.75,54.16 238.15,54.16 238.54,54.16 238.94,54.15 239.34,54.15 239.73,54.14 240.13,54.14 240.52,54.14 240.92,54.15 241.32,54.15 241.71,54.15 242.11,54.15 242.51,54.14 242.9,54.14 243.3,54.13 243.7,54.13 244.09,54.13 244.49,54.13 244.88,54.13 245.28,54.13 245.68,54.12 246.07,54.13 246.47,54.13 246.87,54.13 247.26,54.13 247.66,54.13 248.06,54.13 248.45,54.12 248.85,54.12 249.24,54.12 249.64,54.12 250.04,54.12 250.43,54.12 250.83,54.12 251.23,54.13 251.62,54.13 252.02,54.12 252.41,54.12 252.81,54.12 253.21,54.12 253.6,54.12 254,54.12 254.4,54.12 254.79,54.12 255.19,54.12 255.59,54.12 255.98,54.12 256.38,54.12 256.77,54.12 257.17,54.12 257.57,54.12 257.96,54.11 258.36,54.11 258.76,54.11 259.15,54.1 259.55,54.07 259.94,54.03 260.34,54 260.74,53.98 261.13,53.97 261.53,53.97" stroke-dasharray="none" stroke="rgb(31,120,180)" stroke-width="0.75" opacity="1" stroke-opacity="1" fill="none"/>
          </g>
          <g id="Fig:densplot_01.xyplot.lines.group.8.panel.1.1.1">
            <polyline id="Fig:densplot_01.xyplot.lines.group.8.panel.1.1.1.1" points="59.07,53.97 59.47,53.97 59.87,54 60.26,54.26 60.66,55.77 61.05,61.65 61.45,77.22 61.84,105.81 62.24,142.49 62.64,175.14 63.03,193.71 63.43,196.86 63.82,189.6 64.22,177.69 64.61,164.83 65.01,152.79 65.41,142.2 65.8,133.1 66.2,125.26 66.59,118.39 66.99,112.37 67.38,107.15 67.78,102.68 68.18,98.8 68.57,95.38 68.97,92.31 69.36,89.52 69.76,86.96 70.15,84.64 70.55,82.55 70.95,80.64 71.34,78.89 71.74,77.29 72.13,75.85 72.53,74.61 72.92,73.53 73.32,72.51 73.72,71.52 74.11,70.62 74.51,69.83 74.9,69.17 75.3,68.65 75.69,68.26 76.09,68 76.49,67.86 76.88,67.92 77.28,68.23 77.67,68.8 78.07,69.57 78.46,70.45 78.86,71.36 79.26,72.22 79.65,73 80.05,73.63 80.44,74.06 80.84,74.22 81.23,74.07 81.63,73.66 82.03,73.02 82.42,72.15 82.82,71.12 83.21,69.97 83.61,68.76 84,67.5 84.4,66.23 84.8,65.02 85.19,63.9 85.59,62.9 85.98,62.04 86.38,61.3 86.77,60.67 87.17,60.13 87.57,59.69 87.96,59.31 88.36,58.96 88.75,58.67 89.15,58.44 89.54,58.25 89.94,58.1 90.34,57.97 90.73,57.85 91.13,57.73 91.52,57.62 91.92,57.52 92.31,57.41 92.71,57.31 93.11,57.22 93.5,57.14 93.9,57.07 94.29,57 94.69,56.94 95.08,56.91 95.48,56.87 95.88,56.83 96.27,56.77 96.67,56.69 97.06,56.61 97.46,56.56 97.85,56.51 98.25,56.47 98.65,56.43 99.04,56.38 99.44,56.33 99.83,56.26 100.23,56.21 100.62,56.17 101.02,56.14 101.42,56.09 101.81,56.04 102.21,56 102.6,55.98 103,55.96 103.4,55.93 103.79,55.9 104.19,55.86 104.58,55.84 104.98,55.82 105.37,55.8 105.77,55.76 106.17,55.71 106.56,55.68 106.96,55.67 107.35,55.66 107.75,55.64 108.14,55.61 108.54,55.58 108.94,55.54 109.33,55.51 109.73,55.5 110.12,55.49 110.52,55.47 110.91,55.44 111.31,55.41 111.71,55.4 112.1,55.4 112.5,55.4 112.89,55.38 113.29,55.33 113.68,55.29 114.08,55.27 114.48,55.27 114.87,55.26 115.27,55.25 115.66,55.24 116.06,55.23 116.45,55.21 116.85,55.2 117.25,55.19 117.64,55.18 118.04,55.16 118.43,55.15 118.83,55.13 119.22,55.12 119.62,55.11 120.02,55.09 120.41,55.07 120.81,55.06 121.2,55.07 121.6,55.06 121.99,55.03 122.39,55 122.79,54.98 123.18,54.98 123.58,54.98 123.97,54.98 124.37,54.98 124.76,54.97 125.16,54.95 125.56,54.93 125.95,54.91 126.35,54.89 126.74,54.87 127.14,54.86 127.53,54.86 127.93,54.87 128.33,54.87 128.72,54.87 129.12,54.87 129.51,54.86 129.91,54.85 130.3,54.83 130.7,54.82 131.1,54.8 131.49,54.79 131.89,54.78 132.28,54.78 132.68,54.76 133.07,54.75 133.47,54.75 133.87,54.75 134.26,54.76 134.66,54.75 135.05,54.74 135.45,54.74 135.84,54.73 136.24,54.71 136.64,54.69 137.03,54.69 137.43,54.69 137.82,54.69 138.22,54.69 138.61,54.68 139.01,54.67 139.41,54.66 139.8,54.66 140.2,54.65 140.59,54.63 140.99,54.62 141.38,54.61 141.78,54.61 142.18,54.62 142.57,54.63 142.97,54.62 143.36,54.61 143.76,54.6 144.15,54.59 144.55,54.58 144.95,54.58 145.34,54.58 145.74,54.58 146.13,54.58 146.53,54.58 146.92,54.57 147.32,54.57 147.72,54.56 148.11,54.55 148.51,54.55 148.9,54.55 149.3,54.55 149.69,54.55 150.09,54.54 150.49,54.53 150.88,54.52 151.28,54.52 151.67,54.52 152.07,54.52 152.46,54.52 152.86,54.51 153.26,54.5 153.65,54.48 154.05,54.47 154.44,54.46 154.84,54.46 155.23,54.47 155.63,54.47 156.03,54.47 156.42,54.48 156.82,54.48 157.21,54.47 157.61,54.46 158,54.45 158.4,54.45 158.8,54.44 159.19,54.44 159.59,54.43 159.98,54.43 160.38,54.44 160.77,54.43 161.17,54.42 161.57,54.42 161.96,54.42 162.36,54.41 162.75,54.41 163.15,54.41 163.54,54.41 163.94,54.41 164.34,54.4 164.73,54.39 165.13,54.39 165.52,54.39 165.92,54.38 166.31,54.38 166.71,54.39 167.11,54.39 167.5,54.38 167.9,54.38 168.29,54.37 168.69,54.37 169.08,54.37 169.48,54.37 169.88,54.36 170.27,54.36 170.67,54.36 171.06,54.36 171.46,54.36 171.85,54.35 172.25,54.35 172.65,54.34 173.04,54.34 173.44,54.34 173.83,54.34 174.23,54.35 174.62,54.35 175.02,54.34 175.42,54.34 175.81,54.34 176.21,54.33 176.6,54.32 177,54.31 177.39,54.31 177.79,54.32 178.19,54.32 178.58,54.32 178.98,54.31 179.37,54.31 179.77,54.31 180.16,54.31 180.56,54.31 180.96,54.31 181.35,54.3 181.75,54.29 182.14,54.28 182.54,54.28 182.93,54.28 183.33,54.28 183.73,54.27 184.12,54.27 184.52,54.27 184.91,54.27 185.31,54.27 185.7,54.28 186.1,54.28 186.5,54.28 186.89,54.27 187.29,54.26 187.68,54.26 188.08,54.27 188.47,54.27 188.87,54.27 189.27,54.27 189.66,54.26 190.06,54.26 190.45,54.26 190.85,54.26 191.24,54.26 191.64,54.26 192.04,54.26 192.43,54.26 192.83,54.26 193.22,54.26 193.62,54.25 194.01,54.24 194.41,54.24 194.81,54.24 195.2,54.25 195.6,54.26 195.99,54.26 196.39,54.25 196.78,54.24 197.18,54.23 197.58,54.22 197.97,54.22 198.37,54.22 198.76,54.23 199.16,54.23 199.55,54.24 199.95,54.24 200.35,54.23 200.74,54.23 201.14,54.23 201.53,54.23 201.93,54.22 202.32,54.21 202.72,54.21 203.12,54.21 203.51,54.21 203.91,54.21 204.3,54.2 204.7,54.2 205.09,54.21 205.49,54.21 205.89,54.21 206.28,54.21 206.68,54.21 207.07,54.21 207.47,54.21 207.86,54.21 208.26,54.21 208.66,54.2 209.05,54.19 209.45,54.19 209.84,54.18 210.24,54.18 210.63,54.19 211.03,54.19 211.43,54.19 211.82,54.19 212.22,54.18 212.61,54.18 213.01,54.18 213.4,54.19 213.8,54.18 214.2,54.18 214.59,54.18 214.99,54.19 215.38,54.19 215.78,54.19 216.17,54.18 216.57,54.17 216.97,54.16 217.36,54.16 217.76,54.16 218.15,54.16 218.55,54.17 218.94,54.17 219.34,54.17 219.74,54.17 220.13,54.17 220.53,54.16 220.92,54.16 221.32,54.16 221.71,54.16 222.11,54.16 222.51,54.16 222.9,54.16 223.3,54.15 223.69,54.16 224.09,54.16 224.48,54.16 224.88,54.16 225.28,54.17 225.67,54.17 226.07,54.16 226.46,54.16 226.86,54.16 227.26,54.15 227.65,54.15 228.05,54.15 228.44,54.15 228.84,54.15 229.23,54.15 229.63,54.14 230.03,54.14 230.42,54.14 230.82,54.14 231.21,54.14 231.61,54.14 232,54.14 232.4,54.13 232.8,54.13 233.19,54.13 233.59,54.14 233.98,54.14 234.38,54.14 234.77,54.14 235.17,54.14 235.57,54.13 235.96,54.13 236.36,54.13 236.75,54.13 237.15,54.13 237.54,54.13 237.94,54.13 238.34,54.13 238.73,54.13 239.13,54.13 239.52,54.13 239.92,54.13 240.31,54.12 240.71,54.12 241.11,54.13 241.5,54.13 241.9,54.13 242.29,54.13 242.69,54.13 243.08,54.13 243.48,54.12 243.88,54.11 244.27,54.12 244.67,54.12 245.06,54.12 245.46,54.12 245.85,54.12 246.25,54.12 246.65,54.12 247.04,54.12 247.44,54.12 247.83,54.12 248.23,54.12 248.62,54.12 249.02,54.12 249.42,54.12 249.81,54.12 250.21,54.12 250.6,54.12 251,54.12 251.39,54.12 251.79,54.12 252.19,54.11 252.58,54.11 252.98,54.11 253.37,54.11 253.77,54.11 254.16,54.11 254.56,54.11 254.96,54.11 255.35,54.11 255.75,54.11 256.14,54.1 256.54,54.1 256.93,54.1 257.33,54.11 257.73,54.11 258.12,54.1 258.52,54.1 258.91,54.09 259.31,54.07 259.7,54.04 260.1,54.01 260.5,53.98 260.89,53.97 261.29,53.97" stroke-dasharray="none" stroke="rgb(31,120,180)" stroke-width="0.75" opacity="1" stroke-opacity="1" fill="none"/>
          </g>
          <g id="Fig:densplot_01.xyplot.lines.group.9.panel.1.1.1">
            <polyline id="Fig:densplot_01.xyplot.lines.group.9.panel.1.1.1.1" points="59.37,53.97 59.76,53.97 60.16,53.97 60.55,54.02 60.95,54.32 61.34,55.8 61.74,61.6 62.13,78.52 62.53,112.94 62.92,159.06 63.32,198.47 63.71,217.49 64.11,216.75 64.5,204.38 64.9,187.93 65.29,171.65 65.68,157.13 66.08,144.53 66.47,133.87 66.87,124.82 67.26,117.15 67.66,110.67 68.05,105.21 68.45,100.49 68.84,96.33 69.24,92.72 69.63,89.57 70.03,86.76 70.42,84.25 70.82,82 71.21,79.95 71.61,78.07 72,76.37 72.4,74.86 72.79,73.52 73.18,72.37 73.58,71.37 73.97,70.48 74.37,69.67 74.76,68.95 75.16,68.38 75.55,68.01 75.95,67.84 76.34,67.88 76.74,68.1 77.13,68.54 77.53,69.2 77.92,70.09 78.32,71.09 78.71,72.08 79.11,72.91 79.5,73.58 79.9,74.04 80.29,74.21 80.68,74.05 81.08,73.54 81.47,72.75 81.87,71.75 82.26,70.64 82.66,69.48 83.05,68.26 83.45,67 83.84,65.76 84.24,64.64 84.63,63.64 85.03,62.7 85.42,61.83 85.82,61.07 86.21,60.45 86.61,59.95 87,59.52 87.4,59.13 87.79,58.79 88.18,58.51 88.58,58.27 88.97,58.07 89.37,57.89 89.76,57.73 90.16,57.6 90.55,57.47 90.95,57.36 91.34,57.25 91.74,57.16 92.13,57.08 92.53,56.99 92.92,56.91 93.32,56.83 93.71,56.77 94.11,56.72 94.5,56.68 94.9,56.61 95.29,56.52 95.68,56.44 96.08,56.39 96.47,56.35 96.87,56.33 97.26,56.31 97.66,56.28 98.05,56.23 98.45,56.2 98.84,56.16 99.24,56.1 99.63,56.05 100.03,56 100.42,55.97 100.82,55.93 101.21,55.89 101.61,55.84 102,55.8 102.4,55.75 102.79,55.73 103.19,55.71 103.58,55.68 103.97,55.66 104.37,55.65 104.76,55.65 105.16,55.62 105.55,55.59 105.95,55.56 106.34,55.53 106.74,55.52 107.13,55.5 107.53,55.48 107.92,55.45 108.32,55.43 108.71,55.4 109.11,55.38 109.5,55.36 109.9,55.34 110.29,55.31 110.69,55.29 111.08,55.3 111.47,55.3 111.87,55.29 112.26,55.27 112.66,55.25 113.05,55.23 113.45,55.21 113.84,55.18 114.24,55.16 114.63,55.14 115.03,55.12 115.42,55.11 115.82,55.09 116.21,55.07 116.61,55.06 117,55.07 117.4,55.06 117.79,55.04 118.19,55.02 118.58,55.01 118.97,55 119.37,54.98 119.76,54.96 120.16,54.95 120.55,54.95 120.95,54.95 121.34,54.94 121.74,54.93 122.13,54.93 122.53,54.92 122.92,54.92 123.32,54.91 123.71,54.89 124.11,54.86 124.5,54.84 124.9,54.83 125.29,54.83 125.69,54.83 126.08,54.83 126.47,54.82 126.87,54.8 127.26,54.78 127.66,54.78 128.05,54.78 128.45,54.79 128.84,54.79 129.24,54.77 129.63,54.76 130.03,54.76 130.42,54.76 130.82,54.75 131.21,54.73 131.61,54.72 132,54.72 132.4,54.71 132.79,54.71 133.19,54.7 133.58,54.7 133.97,54.69 134.37,54.68 134.76,54.67 135.16,54.66 135.55,54.66 135.95,54.66 136.34,54.65 136.74,54.63 137.13,54.62 137.53,54.61 137.92,54.61 138.32,54.6 138.71,54.6 139.11,54.59 139.5,54.6 139.9,54.6 140.29,54.58 140.69,54.57 141.08,54.57 141.47,54.57 141.87,54.56 142.26,54.56 142.66,54.55 143.05,54.53 143.45,54.53 143.84,54.54 144.24,54.55 144.63,54.53 145.03,54.52 145.42,54.52 145.82,54.52 146.21,54.51 146.61,54.49 147,54.49 147.4,54.49 147.79,54.49 148.19,54.5 148.58,54.5 148.97,54.49 149.37,54.48 149.76,54.47 150.16,54.47 150.55,54.47 150.95,54.46 151.34,54.45 151.74,54.45 152.13,54.45 152.53,54.45 152.92,54.45 153.32,54.44 153.71,54.43 154.11,54.42 154.5,54.41 154.9,54.42 155.29,54.44 155.69,54.44 156.08,54.43 156.47,54.42 156.87,54.41 157.26,54.42 157.66,54.42 158.05,54.41 158.45,54.39 158.84,54.38 159.24,54.39 159.63,54.4 160.03,54.4 160.42,54.39 160.82,54.39 161.21,54.39 161.61,54.39 162,54.38 162.4,54.37 162.79,54.36 163.19,54.35 163.58,54.36 163.97,54.36 164.37,54.36 164.76,54.36 165.16,54.36 165.55,54.35 165.95,54.34 166.34,54.34 166.74,54.34 167.13,54.35 167.53,54.34 167.92,54.34 168.32,54.34 168.71,54.34 169.11,54.33 169.5,54.32 169.9,54.31 170.29,54.31 170.69,54.31 171.08,54.31 171.48,54.31 171.87,54.3 172.26,54.3 172.66,54.3 173.05,54.3 173.45,54.3 173.84,54.29 174.24,54.29 174.63,54.29 175.03,54.28 175.42,54.28 175.82,54.28 176.21,54.28 176.61,54.28 177,54.29 177.4,54.29 177.79,54.27 178.19,54.26 178.58,54.26 178.98,54.27 179.37,54.28 179.76,54.28 180.16,54.27 180.55,54.27 180.95,54.26 181.34,54.26 181.74,54.26 182.13,54.27 182.53,54.28 182.92,54.28 183.32,54.27 183.71,54.26 184.11,54.26 184.5,54.25 184.9,54.24 185.29,54.24 185.69,54.25 186.08,54.25 186.48,54.25 186.87,54.24 187.26,54.24 187.66,54.24 188.05,54.24 188.45,54.24 188.84,54.23 189.24,54.23 189.63,54.23 190.03,54.22 190.42,54.22 190.82,54.22 191.21,54.23 191.61,54.23 192,54.23 192.4,54.23 192.79,54.23 193.19,54.23 193.58,54.22 193.98,54.21 194.37,54.2 194.76,54.2 195.16,54.2 195.55,54.21 195.95,54.21 196.34,54.21 196.74,54.21 197.13,54.21 197.53,54.21 197.92,54.21 198.32,54.2 198.71,54.19 199.11,54.19 199.5,54.19 199.9,54.19 200.29,54.18 200.69,54.18 201.08,54.19 201.48,54.19 201.87,54.18 202.26,54.18 202.66,54.18 203.05,54.18 203.45,54.17 203.84,54.17 204.24,54.18 204.63,54.18 205.03,54.18 205.42,54.18 205.82,54.18 206.21,54.18 206.61,54.18 207,54.18 207.4,54.18 207.79,54.18 208.19,54.18 208.58,54.18 208.98,54.19 209.37,54.19 209.76,54.18 210.16,54.17 210.55,54.16 210.95,54.16 211.34,54.17 211.74,54.17 212.13,54.17 212.53,54.17 212.92,54.16 213.32,54.16 213.71,54.16 214.11,54.15 214.5,54.16 214.9,54.16 215.29,54.16 215.69,54.16 216.08,54.16 216.48,54.16 216.87,54.16 217.26,54.15 217.66,54.15 218.05,54.15 218.45,54.15 218.84,54.15 219.24,54.15 219.63,54.15 220.03,54.15 220.42,54.15 220.82,54.15 221.21,54.15 221.61,54.15 222,54.15 222.4,54.15 222.79,54.15 223.19,54.15 223.58,54.15 223.98,54.14 224.37,54.14 224.76,54.14 225.16,54.13 225.55,54.13 225.95,54.13 226.34,54.13 226.74,54.13 227.13,54.13 227.53,54.13 227.92,54.14 228.32,54.14 228.71,54.13 229.11,54.13 229.5,54.13 229.9,54.13 230.29,54.13 230.69,54.12 231.08,54.12 231.48,54.12 231.87,54.12 232.26,54.11 232.66,54.12 233.05,54.11 233.45,54.11 233.84,54.11 234.24,54.12 234.63,54.12 235.03,54.12 235.42,54.12 235.82,54.12 236.21,54.12 236.61,54.12 237,54.12 237.4,54.12 237.79,54.12 238.19,54.12 238.58,54.12 238.98,54.12 239.37,54.11 239.76,54.11 240.16,54.11 240.55,54.12 240.95,54.12 241.34,54.12 241.74,54.12 242.13,54.12 242.53,54.12 242.92,54.11 243.32,54.11 243.71,54.11 244.11,54.11 244.5,54.1 244.9,54.1 245.29,54.1 245.69,54.1 246.08,54.09 246.48,54.09 246.87,54.09 247.27,54.09 247.66,54.1 248.05,54.1 248.45,54.11 248.84,54.1 249.24,54.1 249.63,54.09 250.03,54.09 250.42,54.09 250.82,54.09 251.21,54.09 251.61,54.09 252,54.09 252.4,54.09 252.79,54.08 253.19,54.08 253.58,54.09 253.98,54.09 254.37,54.08 254.77,54.08 255.16,54.08 255.55,54.07 255.95,54.08 256.34,54.09 256.74,54.1 257.13,54.1 257.53,54.09 257.92,54.09 258.32,54.09 258.71,54.09 259.11,54.09 259.5,54.06 259.9,54.02 260.29,53.99 260.69,53.97 261.08,53.97" stroke-dasharray="none" stroke="rgb(31,120,180)" stroke-width="0.75" opacity="1" stroke-opacity="1" fill="none"/>
          </g>
          <g id="Fig:densplot_01.xyplot.lines.group.10.panel.1.1.1">
            <polyline id="Fig:densplot_01.xyplot.lines.group.10.panel.1.1.1.1" points="59.47,53.97 59.86,53.97 60.26,54.06 60.65,54.67 61.05,57.64 61.44,67.35 61.84,89.06 62.23,122.89 62.63,159.76 63.02,186.96 63.42,198.08 63.81,195.55 64.21,185.48 64.6,172.84 64.99,160.26 65.39,148.81 65.78,138.81 66.18,130.17 66.57,122.68 66.97,116.19 67.36,110.59 67.76,105.75 68.15,101.53 68.55,97.77 68.94,94.39 69.34,91.35 69.73,88.6 70.13,86.08 70.52,83.78 70.92,81.71 71.31,79.86 71.71,78.2 72.1,76.73 72.5,75.44 72.89,74.25 73.29,73.14 73.68,72.12 74.08,71.19 74.47,70.33 74.87,69.55 75.26,68.9 75.66,68.33 76.05,67.85 76.45,67.44 76.84,67.1 77.24,66.8 77.63,66.53 78.03,66.32 78.42,66.2 78.82,66.15 79.21,66.13 79.61,66.15 80,66.22 80.4,66.37 80.79,66.57 81.18,66.81 81.58,67.14 81.97,67.56 82.37,68.06 82.76,68.57 83.16,69.05 83.55,69.45 83.95,69.73 84.34,69.87 84.74,69.84 85.13,69.63 85.53,69.24 85.92,68.69 86.32,68 86.71,67.16 87.11,66.22 87.5,65.23 87.9,64.24 88.29,63.27 88.69,62.35 89.08,61.51 89.48,60.77 89.87,60.14 90.27,59.59 90.66,59.1 91.06,58.67 91.45,58.3 91.85,57.99 92.24,57.76 92.64,57.58 93.03,57.44 93.43,57.33 93.82,57.24 94.22,57.15 94.61,57.06 95.01,56.95 95.4,56.85 95.8,56.78 96.19,56.74 96.59,56.7 96.98,56.64 97.37,56.57 97.77,56.53 98.16,56.48 98.56,56.42 98.95,56.36 99.35,56.31 99.74,56.29 100.14,56.27 100.53,56.24 100.93,56.18 101.32,56.12 101.72,56.06 102.11,56.02 102.51,56 102.9,55.99 103.3,55.96 103.69,55.91 104.09,55.87 104.48,55.84 104.88,55.81 105.27,55.77 105.67,55.73 106.06,55.7 106.46,55.69 106.85,55.66 107.25,55.64 107.64,55.61 108.04,55.59 108.43,55.58 108.83,55.57 109.22,55.55 109.62,55.53 110.01,55.51 110.41,55.47 110.8,55.45 111.2,55.43 111.59,55.41 111.99,55.39 112.38,55.37 112.78,55.35 113.17,55.33 113.56,55.33 113.96,55.3 114.35,55.27 114.75,55.25 115.14,55.24 115.54,55.23 115.93,55.21 116.33,55.18 116.72,55.17 117.12,55.16 117.51,55.16 117.91,55.17 118.3,55.17 118.7,55.14 119.09,55.1 119.49,55.07 119.88,55.05 120.28,55.04 120.67,55.04 121.07,55.04 121.46,55.03 121.86,55.02 122.25,54.99 122.65,54.97 123.04,54.96 123.44,54.96 123.83,54.96 124.23,54.94 124.62,54.93 125.02,54.92 125.41,54.92 125.81,54.91 126.2,54.9 126.6,54.88 126.99,54.87 127.39,54.86 127.78,54.85 128.18,54.85 128.57,54.84 128.96,54.83 129.36,54.82 129.75,54.8 130.15,54.79 130.54,54.78 130.94,54.77 131.33,54.77 131.73,54.77 132.12,54.77 132.52,54.76 132.91,54.75 133.31,54.75 133.7,54.74 134.1,54.72 134.49,54.71 134.89,54.71 135.28,54.71 135.68,54.7 136.07,54.68 136.47,54.66 136.86,54.66 137.26,54.66 137.65,54.67 138.05,54.67 138.44,54.66 138.84,54.64 139.23,54.63 139.63,54.63 140.02,54.63 140.42,54.62 140.81,54.62 141.21,54.61 141.6,54.61 142,54.61 142.39,54.6 142.79,54.6 143.18,54.59 143.58,54.58 143.97,54.58 144.37,54.58 144.76,54.58 145.15,54.57 145.55,54.56 145.94,54.55 146.34,54.55 146.73,54.55 147.13,54.55 147.52,54.56 147.92,54.56 148.31,54.56 148.71,54.55 149.1,54.53 149.5,54.53 149.89,54.52 150.29,54.52 150.68,54.51 151.08,54.51 151.47,54.5 151.87,54.49 152.26,54.48 152.66,54.48 153.05,54.49 153.45,54.48 153.84,54.47 154.24,54.45 154.63,54.45 155.03,54.45 155.42,54.46 155.82,54.46 156.21,54.46 156.61,54.45 157,54.45 157.4,54.44 157.79,54.43 158.19,54.43 158.58,54.42 158.98,54.42 159.37,54.42 159.77,54.42 160.16,54.42 160.56,54.41 160.95,54.41 161.34,54.4 161.74,54.4 162.13,54.4 162.53,54.4 162.92,54.4 163.32,54.4 163.71,54.39 164.11,54.39 164.5,54.38 164.9,54.38 165.29,54.37 165.69,54.37 166.08,54.37 166.48,54.36 166.87,54.35 167.27,54.35 167.66,54.35 168.06,54.35 168.45,54.35 168.85,54.35 169.24,54.35 169.64,54.35 170.03,54.35 170.43,54.34 170.82,54.33 171.22,54.33 171.61,54.33 172.01,54.34 172.4,54.34 172.8,54.33 173.19,54.33 173.59,54.32 173.98,54.31 174.38,54.3 174.77,54.3 175.17,54.3 175.56,54.31 175.96,54.31 176.35,54.32 176.75,54.31 177.14,54.31 177.53,54.3 177.93,54.29 178.32,54.28 178.72,54.28 179.11,54.28 179.51,54.29 179.9,54.29 180.3,54.28 180.69,54.28 181.09,54.28 181.48,54.28 181.88,54.27 182.27,54.26 182.67,54.25 183.06,54.25 183.46,54.25 183.85,54.26 184.25,54.26 184.64,54.26 185.04,54.27 185.43,54.27 185.83,54.27 186.22,54.27 186.62,54.26 187.01,54.25 187.41,54.25 187.8,54.25 188.2,54.25 188.59,54.26 188.99,54.26 189.38,54.25 189.78,54.24 190.17,54.23 190.57,54.23 190.96,54.23 191.36,54.23 191.75,54.23 192.15,54.23 192.54,54.23 192.94,54.23 193.33,54.23 193.72,54.23 194.12,54.23 194.51,54.22 194.91,54.21 195.3,54.21 195.7,54.21 196.09,54.22 196.49,54.22 196.88,54.22 197.28,54.22 197.67,54.21 198.07,54.21 198.46,54.21 198.86,54.21 199.25,54.22 199.65,54.22 200.04,54.22 200.44,54.21 200.83,54.21 201.23,54.21 201.62,54.21 202.02,54.21 202.41,54.21 202.81,54.21 203.2,54.21 203.6,54.2 203.99,54.2 204.39,54.19 204.78,54.19 205.18,54.18 205.57,54.18 205.97,54.19 206.36,54.19 206.76,54.18 207.15,54.18 207.55,54.18 207.94,54.18 208.34,54.18 208.73,54.18 209.12,54.18 209.52,54.18 209.91,54.17 210.31,54.16 210.7,54.15 211.1,54.15 211.49,54.15 211.89,54.16 212.28,54.17 212.68,54.17 213.07,54.17 213.47,54.17 213.86,54.17 214.26,54.17 214.65,54.16 215.05,54.16 215.44,54.16 215.84,54.16 216.23,54.16 216.63,54.16 217.02,54.16 217.42,54.15 217.81,54.15 218.21,54.15 218.6,54.15 219,54.15 219.39,54.15 219.79,54.16 220.18,54.16 220.58,54.15 220.97,54.15 221.37,54.15 221.76,54.14 222.16,54.14 222.55,54.14 222.95,54.15 223.34,54.15 223.74,54.14 224.13,54.13 224.53,54.13 224.92,54.13 225.31,54.13 225.71,54.14 226.1,54.14 226.5,54.14 226.89,54.13 227.29,54.13 227.68,54.12 228.08,54.12 228.47,54.13 228.87,54.13 229.26,54.14 229.66,54.14 230.05,54.14 230.45,54.13 230.84,54.13 231.24,54.13 231.63,54.13 232.03,54.13 232.42,54.13 232.82,54.13 233.21,54.13 233.61,54.13 234,54.12 234.4,54.12 234.79,54.13 235.19,54.13 235.58,54.13 235.98,54.12 236.37,54.12 236.77,54.12 237.16,54.11 237.56,54.12 237.95,54.12 238.35,54.12 238.74,54.12 239.14,54.12 239.53,54.11 239.93,54.1 240.32,54.11 240.72,54.11 241.11,54.12 241.5,54.12 241.9,54.11 242.29,54.1 242.69,54.1 243.08,54.1 243.48,54.1 243.87,54.1 244.27,54.11 244.66,54.11 245.06,54.1 245.45,54.1 245.85,54.1 246.24,54.11 246.64,54.11 247.03,54.11 247.43,54.11 247.82,54.1 248.22,54.1 248.61,54.1 249.01,54.1 249.4,54.1 249.8,54.1 250.19,54.09 250.59,54.09 250.98,54.1 251.38,54.1 251.77,54.1 252.17,54.1 252.56,54.1 252.96,54.1 253.35,54.09 253.75,54.09 254.14,54.09 254.54,54.09 254.93,54.09 255.33,54.09 255.72,54.09 256.12,54.09 256.51,54.09 256.91,54.09 257.3,54.09 257.69,54.09 258.09,54.09 258.48,54.09 258.88,54.09 259.27,54.08 259.67,54.05 260.06,54.01 260.46,53.98 260.85,53.97 261.25,53.97" stroke-dasharray="none" stroke="rgb(31,120,180)" stroke-width="0.75" opacity="1" stroke-opacity="1" fill="none"/>
          </g>
          <g id="Fig:densplot_01.xyplot.lines.group.11.panel.1.1.1">
            <polyline id="Fig:densplot_01.xyplot.lines.group.11.panel.1.1.1.1" points="59.07,53.97 59.47,53.97 59.86,54.02 60.26,54.43 60.66,56.53 61.05,63.9 61.45,81.43 61.84,109.53 62.24,139.39 62.63,159.5 63.03,166.24 63.42,163.47 63.82,156.47 64.21,148.46 64.61,140.79 65,134 65.4,128.21 65.8,123.22 66.19,118.94 66.59,115.6 66.98,113.32 67.38,112.23 67.77,112.13 68.17,112.58 68.56,112.89 68.96,112.59 69.35,111.4 69.75,109.16 70.14,105.94 70.54,102 70.94,97.73 71.33,93.46 71.73,89.47 72.12,85.93 72.52,82.94 72.91,80.47 73.31,78.4 73.7,76.69 74.1,75.28 74.49,74.04 74.89,72.91 75.28,71.92 75.68,71.04 76.08,70.23 76.47,69.49 76.87,68.85 77.26,68.27 77.66,67.71 78.05,67.19 78.45,66.71 78.84,66.26 79.24,65.83 79.63,65.46 80.03,65.09 80.42,64.7 80.82,64.31 81.21,63.97 81.61,63.68 82.01,63.39 82.4,63.07 82.8,62.76 83.19,62.47 83.59,62.22 83.98,61.97 84.38,61.73 84.77,61.5 85.17,61.27 85.56,61.02 85.96,60.8 86.35,60.63 86.75,60.46 87.15,60.27 87.54,60.09 87.94,59.96 88.33,59.86 88.73,59.76 89.12,59.63 89.52,59.47 89.91,59.28 90.31,59.1 90.7,58.98 91.1,58.88 91.49,58.76 91.89,58.64 92.29,58.55 92.68,58.46 93.08,58.36 93.47,58.27 93.87,58.18 94.26,58.1 94.66,58.01 95.05,57.91 95.45,57.82 95.84,57.73 96.24,57.65 96.63,57.57 97.03,57.49 97.43,57.41 97.82,57.33 98.22,57.28 98.61,57.25 99.01,57.21 99.4,57.14 99.8,57.06 100.19,56.98 100.59,56.92 100.98,56.87 101.38,56.83 101.77,56.78 102.17,56.72 102.57,56.69 102.96,56.66 103.36,56.61 103.75,56.54 104.15,56.49 104.54,56.46 104.94,56.44 105.33,56.41 105.73,56.37 106.12,56.34 106.52,56.3 106.91,56.25 107.31,56.2 107.71,56.17 108.1,56.13 108.5,56.09 108.89,56.04 109.29,56.02 109.68,55.99 110.08,55.96 110.47,55.94 110.87,55.91 111.26,55.88 111.66,55.85 112.05,55.83 112.45,55.84 112.84,55.83 113.24,55.8 113.64,55.76 114.03,55.75 114.43,55.72 114.82,55.69 115.22,55.66 115.61,55.64 116.01,55.63 116.4,55.63 116.8,55.6 117.19,55.56 117.59,55.53 117.98,55.51 118.38,55.5 118.78,55.49 119.17,55.47 119.57,55.45 119.96,55.43 120.36,55.4 120.75,55.37 121.15,55.36 121.54,55.35 121.94,55.33 122.33,55.31 122.73,55.29 123.12,55.27 123.52,55.25 123.92,55.23 124.31,55.21 124.71,55.21 125.1,55.2 125.5,55.18 125.89,55.16 126.29,55.14 126.68,55.13 127.08,55.13 127.47,55.13 127.87,55.12 128.26,55.11 128.66,55.11 129.06,55.1 129.45,55.08 129.85,55.06 130.24,55.05 130.64,55.05 131.03,55.05 131.43,55.04 131.82,55.02 132.22,55 132.61,55 133.01,55.01 133.4,55 133.8,54.99 134.2,54.96 134.59,54.93 134.99,54.91 135.38,54.91 135.78,54.9 136.17,54.9 136.57,54.89 136.96,54.88 137.36,54.87 137.75,54.86 138.15,54.86 138.54,54.86 138.94,54.85 139.34,54.84 139.73,54.84 140.13,54.83 140.52,54.83 140.92,54.82 141.31,54.8 141.71,54.79 142.1,54.78 142.5,54.78 142.89,54.78 143.29,54.77 143.68,54.76 144.08,54.76 144.47,54.75 144.87,54.74 145.27,54.73 145.66,54.72 146.06,54.7 146.45,54.69 146.85,54.7 147.24,54.72 147.64,54.72 148.03,54.72 148.43,54.71 148.82,54.7 149.22,54.7 149.61,54.69 150.01,54.67 150.41,54.65 150.8,54.64 151.2,54.63 151.59,54.63 151.99,54.64 152.38,54.64 152.78,54.64 153.17,54.63 153.57,54.62 153.96,54.62 154.36,54.61 154.75,54.6 155.15,54.59 155.55,54.59 155.94,54.59 156.34,54.59 156.73,54.58 157.13,54.56 157.52,54.55 157.92,54.56 158.31,54.58 158.71,54.58 159.1,54.56 159.5,54.55 159.89,54.54 160.29,54.53 160.69,54.52 161.08,54.52 161.48,54.52 161.87,54.51 162.27,54.51 162.66,54.51 163.06,54.51 163.45,54.52 163.85,54.51 164.24,54.5 164.64,54.48 165.03,54.48 165.43,54.48 165.83,54.49 166.22,54.49 166.62,54.5 167.01,54.49 167.41,54.48 167.8,54.47 168.2,54.47 168.59,54.48 168.99,54.48 169.38,54.48 169.78,54.46 170.17,54.45 170.57,54.44 170.96,54.43 171.36,54.43 171.76,54.43 172.15,54.43 172.55,54.44 172.94,54.43 173.34,54.42 173.73,54.41 174.13,54.41 174.52,54.42 174.92,54.43 175.31,54.42 175.71,54.41 176.1,54.4 176.5,54.39 176.9,54.39 177.29,54.39 177.69,54.39 178.08,54.38 178.48,54.37 178.87,54.37 179.27,54.38 179.66,54.38 180.06,54.39 180.45,54.39 180.85,54.39 181.24,54.39 181.64,54.38 182.04,54.37 182.43,54.37 182.83,54.37 183.22,54.37 183.62,54.38 184.01,54.37 184.41,54.36 184.8,54.35 185.2,54.35 185.59,54.36 185.99,54.37 186.38,54.36 186.78,54.35 187.18,54.34 187.57,54.33 187.97,54.33 188.36,54.34 188.76,54.34 189.15,54.34 189.55,54.33 189.94,54.32 190.34,54.32 190.73,54.31 191.13,54.31 191.52,54.3 191.92,54.31 192.32,54.32 192.71,54.32 193.11,54.31 193.5,54.3 193.9,54.3 194.29,54.31 194.69,54.32 195.08,54.32 195.48,54.32 195.87,54.31 196.27,54.31 196.66,54.31 197.06,54.31 197.46,54.31 197.85,54.31 198.25,54.3 198.64,54.3 199.04,54.3 199.43,54.29 199.83,54.29 200.22,54.29 200.62,54.28 201.01,54.28 201.41,54.28 201.8,54.28 202.2,54.28 202.59,54.27 202.99,54.26 203.39,54.26 203.78,54.25 204.18,54.26 204.57,54.26 204.97,54.27 205.36,54.26 205.76,54.25 206.15,54.25 206.55,54.25 206.94,54.25 207.34,54.26 207.73,54.25 208.13,54.24 208.53,54.24 208.92,54.23 209.32,54.23 209.71,54.23 210.11,54.23 210.5,54.23 210.9,54.23 211.29,54.23 211.69,54.22 212.08,54.22 212.48,54.22 212.87,54.22 213.27,54.23 213.67,54.23 214.06,54.23 214.46,54.23 214.85,54.22 215.25,54.22 215.64,54.22 216.04,54.22 216.43,54.22 216.83,54.21 217.22,54.2 217.62,54.19 218.01,54.19 218.41,54.2 218.81,54.21 219.2,54.21 219.6,54.21 219.99,54.21 220.39,54.21 220.78,54.2 221.18,54.2 221.57,54.19 221.97,54.19 222.36,54.19 222.76,54.19 223.15,54.19 223.55,54.19 223.95,54.2 224.34,54.2 224.74,54.19 225.13,54.18 225.53,54.18 225.92,54.18 226.32,54.19 226.71,54.19 227.11,54.19 227.5,54.19 227.9,54.18 228.29,54.18 228.69,54.19 229.08,54.19 229.48,54.19 229.88,54.19 230.27,54.19 230.67,54.19 231.06,54.19 231.46,54.19 231.85,54.18 232.25,54.18 232.64,54.17 233.04,54.17 233.43,54.17 233.83,54.17 234.22,54.17 234.62,54.17 235.02,54.16 235.41,54.15 235.81,54.15 236.2,54.15 236.6,54.15 236.99,54.16 237.39,54.16 237.78,54.16 238.18,54.16 238.57,54.16 238.97,54.16 239.36,54.15 239.76,54.16 240.16,54.17 240.55,54.17 240.95,54.16 241.34,54.15 241.74,54.15 242.13,54.16 242.53,54.16 242.92,54.16 243.32,54.15 243.71,54.14 244.11,54.14 244.5,54.14 244.9,54.14 245.3,54.15 245.69,54.15 246.09,54.15 246.48,54.15 246.88,54.15 247.27,54.16 247.67,54.16 248.06,54.16 248.46,54.15 248.85,54.15 249.25,54.14 249.64,54.14 250.04,54.13 250.44,54.13 250.83,54.14 251.23,54.14 251.62,54.14 252.02,54.13 252.41,54.13 252.81,54.13 253.2,54.13 253.6,54.14 253.99,54.15 254.39,54.15 254.78,54.14 255.18,54.14 255.58,54.14 255.97,54.14 256.37,54.13 256.76,54.13 257.16,54.13 257.55,54.13 257.95,54.13 258.34,54.13 258.74,54.13 259.13,54.12 259.53,54.09 259.92,54.04 260.32,54 260.71,53.97 261.11,53.97" stroke-dasharray="none" stroke="rgb(31,120,180)" stroke-width="0.75" opacity="1" stroke-opacity="1" fill="none"/>
          </g>
          <g id="Fig:densplot_01.xyplot.lines.group.12.panel.1.1.1">
            <polyline id="Fig:densplot_01.xyplot.lines.group.12.panel.1.1.1.1" points="59.43,53.97 59.82,53.97 60.22,54.11 60.61,55.31 61.01,61.55 61.4,80.62 61.79,116.42 62.19,158.5 62.58,188.36 62.98,197.69 63.37,191.56 63.77,178.69 64.16,164.88 64.55,152.39 64.95,141.66 65.34,132.56 65.74,125.09 66.13,119.14 66.53,114.7 66.92,111.67 67.32,109.91 67.71,109.13 68.1,108.97 68.5,108.84 68.89,108.13 69.29,106.57 69.68,104.2 70.08,101 70.47,97.14 70.86,93.07 71.26,89.08 71.65,85.38 72.05,82.06 72.44,79.25 72.84,76.89 73.23,74.94 73.62,73.29 74.02,71.94 74.41,70.82 74.81,69.91 75.2,69.1 75.6,68.33 75.99,67.59 76.38,66.97 76.78,66.39 77.17,65.86 77.57,65.38 77.96,64.99 78.36,64.64 78.75,64.27 79.15,63.88 79.54,63.52 79.93,63.18 80.33,62.85 80.72,62.54 81.12,62.27 81.51,62.02 81.91,61.73 82.3,61.45 82.69,61.24 83.09,61.07 83.48,60.87 83.88,60.66 84.27,60.47 84.67,60.31 85.06,60.17 85.45,59.99 85.85,59.78 86.24,59.61 86.64,59.48 87.03,59.36 87.43,59.22 87.82,59.09 88.21,58.97 88.61,58.87 89,58.76 89.4,58.63 89.79,58.48 90.19,58.33 90.58,58.22 90.98,58.15 91.37,58.1 91.76,58.02 92.16,57.92 92.55,57.82 92.95,57.73 93.34,57.65 93.74,57.56 94.13,57.5 94.52,57.46 94.92,57.4 95.31,57.32 95.71,57.23 96.1,57.14 96.5,57.09 96.89,57.05 97.28,56.99 97.68,56.94 98.07,56.91 98.47,56.87 98.86,56.81 99.26,56.76 99.65,56.72 100.04,56.66 100.44,56.62 100.83,56.57 101.23,56.52 101.62,56.47 102.02,56.42 102.41,56.36 102.81,56.33 103.2,56.32 103.59,56.29 103.99,56.26 104.38,56.23 104.78,56.18 105.17,56.11 105.57,56.08 105.96,56.07 106.35,56.02 106.75,55.98 107.14,55.98 107.54,56 107.93,55.99 108.33,55.93 108.72,55.85 109.11,55.8 109.51,55.79 109.9,55.77 110.3,55.76 110.69,55.75 111.09,55.75 111.48,55.75 111.87,55.72 112.27,55.69 112.66,55.66 113.06,55.65 113.45,55.63 113.85,55.6 114.24,55.56 114.64,55.53 115.03,55.5 115.42,55.48 115.82,55.46 116.21,55.45 116.61,55.45 117,55.44 117.4,55.42 117.79,55.41 118.18,55.39 118.58,55.36 118.97,55.33 119.37,55.32 119.76,55.3 120.16,55.29 120.55,55.28 120.94,55.27 121.34,55.27 121.73,55.26 122.13,55.25 122.52,55.23 122.92,55.21 123.31,55.2 123.7,55.18 124.1,55.17 124.49,55.15 124.89,55.15 125.28,55.15 125.68,55.14 126.07,55.12 126.47,55.12 126.86,55.12 127.25,55.11 127.65,55.09 128.04,55.05 128.44,55.03 128.83,55.03 129.23,55.02 129.62,55.01 130.01,55 130.41,54.98 130.8,54.97 131.2,54.95 131.59,54.94 131.99,54.94 132.38,54.94 132.77,54.94 133.17,54.96 133.56,54.97 133.96,54.96 134.35,54.91 134.75,54.88 135.14,54.88 135.53,54.88 135.93,54.88 136.32,54.87 136.72,54.86 137.11,54.86 137.51,54.85 137.9,54.84 138.3,54.82 138.69,54.79 139.08,54.77 139.48,54.77 139.87,54.78 140.27,54.79 140.66,54.79 141.06,54.79 141.45,54.77 141.84,54.75 142.24,54.74 142.63,54.74 143.03,54.75 143.42,54.75 143.82,54.74 144.21,54.72 144.6,54.7 145,54.68 145.39,54.67 145.79,54.68 146.18,54.68 146.58,54.68 146.97,54.68 147.36,54.68 147.76,54.67 148.15,54.65 148.55,54.65 148.94,54.65 149.34,54.64 149.73,54.64 150.13,54.63 150.52,54.64 150.91,54.64 151.31,54.64 151.7,54.63 152.1,54.63 152.49,54.62 152.89,54.61 153.28,54.6 153.67,54.6 154.07,54.59 154.46,54.58 154.86,54.58 155.25,54.57 155.65,54.57 156.04,54.56 156.43,54.55 156.83,54.53 157.22,54.52 157.62,54.52 158.01,54.53 158.41,54.55 158.8,54.55 159.19,54.54 159.59,54.54 159.98,54.53 160.38,54.52 160.77,54.51 161.17,54.5 161.56,54.49 161.96,54.5 162.35,54.5 162.74,54.51 163.14,54.52 163.53,54.52 163.93,54.52 164.32,54.53 164.72,54.51 165.11,54.49 165.5,54.47 165.9,54.46 166.29,54.46 166.69,54.46 167.08,54.46 167.48,54.45 167.87,54.45 168.26,54.46 168.66,54.46 169.05,54.45 169.45,54.45 169.84,54.46 170.24,54.46 170.63,54.43 171.02,54.42 171.42,54.42 171.81,54.43 172.21,54.43 172.6,54.42 173,54.41 173.39,54.41 173.79,54.42 174.18,54.42 174.57,54.41 174.97,54.4 175.36,54.39 175.76,54.39 176.15,54.39 176.55,54.39 176.94,54.39 177.33,54.39 177.73,54.4 178.12,54.41 178.52,54.42 178.91,54.42 179.31,54.4 179.7,54.38 180.09,54.38 180.49,54.37 180.88,54.37 181.28,54.36 181.67,54.36 182.07,54.37 182.46,54.38 182.85,54.37 183.25,54.36 183.64,54.35 184.04,54.36 184.43,54.36 184.83,54.34 185.22,54.33 185.62,54.33 186.01,54.34 186.4,54.36 186.8,54.35 187.19,54.34 187.59,54.34 187.98,54.34 188.38,54.34 188.77,54.33 189.16,54.32 189.56,54.31 189.95,54.32 190.35,54.32 190.74,54.31 191.14,54.31 191.53,54.3 191.92,54.3 192.32,54.3 192.71,54.31 193.11,54.31 193.5,54.31 193.9,54.3 194.29,54.3 194.68,54.3 195.08,54.3 195.47,54.3 195.87,54.29 196.26,54.28 196.66,54.28 197.05,54.28 197.45,54.29 197.84,54.29 198.23,54.28 198.63,54.28 199.02,54.27 199.42,54.28 199.81,54.28 200.21,54.29 200.6,54.29 200.99,54.28 201.39,54.27 201.78,54.27 202.18,54.27 202.57,54.27 202.97,54.27 203.36,54.27 203.75,54.26 204.15,54.25 204.54,54.24 204.94,54.25 205.33,54.25 205.73,54.25 206.12,54.24 206.51,54.24 206.91,54.24 207.3,54.25 207.7,54.25 208.09,54.24 208.49,54.24 208.88,54.24 209.28,54.24 209.67,54.24 210.06,54.23 210.46,54.23 210.85,54.23 211.25,54.23 211.64,54.23 212.04,54.23 212.43,54.23 212.82,54.24 213.22,54.24 213.61,54.23 214.01,54.22 214.4,54.21 214.8,54.21 215.19,54.22 215.58,54.22 215.98,54.22 216.37,54.22 216.77,54.22 217.16,54.22 217.56,54.22 217.95,54.21 218.34,54.21 218.74,54.2 219.13,54.21 219.53,54.21 219.92,54.22 220.32,54.21 220.71,54.21 221.11,54.2 221.5,54.2 221.89,54.19 222.29,54.2 222.68,54.21 223.08,54.21 223.47,54.2 223.87,54.19 224.26,54.18 224.65,54.19 225.05,54.2 225.44,54.2 225.84,54.2 226.23,54.2 226.63,54.19 227.02,54.18 227.41,54.18 227.81,54.19 228.2,54.19 228.6,54.18 228.99,54.18 229.39,54.18 229.78,54.19 230.17,54.18 230.57,54.18 230.96,54.17 231.36,54.17 231.75,54.16 232.15,54.16 232.54,54.16 232.94,54.16 233.33,54.16 233.72,54.17 234.12,54.17 234.51,54.17 234.91,54.17 235.3,54.17 235.7,54.16 236.09,54.16 236.48,54.17 236.88,54.17 237.27,54.17 237.67,54.18 238.06,54.17 238.46,54.17 238.85,54.17 239.24,54.17 239.64,54.17 240.03,54.17 240.43,54.16 240.82,54.15 241.22,54.15 241.61,54.15 242,54.16 242.4,54.16 242.79,54.15 243.19,54.15 243.58,54.15 243.98,54.15 244.37,54.15 244.77,54.15 245.16,54.15 245.55,54.14 245.95,54.15 246.34,54.15 246.74,54.15 247.13,54.15 247.53,54.15 247.92,54.15 248.31,54.15 248.71,54.15 249.1,54.15 249.5,54.15 249.89,54.14 250.29,54.14 250.68,54.14 251.07,54.14 251.47,54.14 251.86,54.14 252.26,54.14 252.65,54.15 253.05,54.15 253.44,54.15 253.83,54.14 254.23,54.13 254.62,54.14 255.02,54.13 255.41,54.13 255.81,54.13 256.2,54.14 256.6,54.14 256.99,54.14 257.38,54.13 257.78,54.13 258.17,54.13 258.57,54.13 258.96,54.13 259.36,54.11 259.75,54.06 260.14,54.01 260.54,53.98 260.93,53.97" stroke-dasharray="none" stroke="rgb(31,120,180)" stroke-width="0.75" opacity="1" stroke-opacity="1" fill="none"/>
          </g>
        </g>
        <g id="Fig:densplot_01.panel.1.1.off.vp.2">
          <g id="Fig:densplot_01.border.panel.1.1.1">
            <rect id="Fig:densplot_01.border.panel.1.1.1.1" x="44.8" y="42.19" width="231.2" height="191.81" transform="" stroke="rgb(0,0,0)" stroke-dasharray="none" stroke-width="0.75" opacity="1" fill="none" stroke-opacity="1" fill-opacity="0"/>
          </g>
        </g>
        <g id="Fig:densplot_01..1"/>
      </g>
    </g>
  </g>
</svg>